
<svg xmlns="http://www.w3.org/2000/svg" version="1.1" xmlns:xlink="http://www.w3.org/1999/xlink" preserveAspectRatio="none" x="0px" y="0px" width="256px" height="256px" viewBox="0 0 256 256">
<defs>
<g id="Layer1_0_FILL">
<path fill="#57B443" stroke="none" d="
M 0 0
L 0 256 256 256 256 0 0 0 Z"/>
</g>

<g id="grass_0_Layer0_0_FILL">
<path fill="#7ECB64" stroke="none" d="
M -36 160.45
L -36 158.45 -38 158.45 -38 160.45 -36 160.45
M -42 158.45
L -42 160.45 -40 160.45 -40 158.45 -42 158.45
M -34 -50.55
L -34 -52.55 -36 -52.55 -36 -50.55 -34 -50.55
M -30 -50.55
L -30 -52.55 -32 -52.55 -32 -50.55 -30 -50.55
M 113.95 174.45
L 113.95 172.45 111.95 172.45 111.95 174.45 113.95 174.45
M 117.95 174.45
L 117.95 172.45 115.95 172.45 115.95 174.45 117.95 174.45
M 31 113
L 31 111 29 111 29 113 31 113
M 23 111
L 21 111 21 113 23 113 23 111
M 27 111
L 25 111 25 113 27 113 27 111
M 0 29
L 0 31 2 31 2 29 0 29
M 4 29
L 4 31 6 31 6 29 4 29
M 144.95 76
L 144.95 78 146.95 78 146.95 76 144.95 76
M 140.95 76
L 140.95 78 142.95 78 142.95 76 140.95 76
M 138.95 76
L 136.95 76 136.95 78 138.95 78 138.95 76
M 83.95 0
L 83.95 2 85.95 2 85.95 0 83.95 0
M 81.95 2
L 81.95 0 79.95 0 79.95 2 81.95 2
M 229 -36
L 229 -38 227 -38 227 -36 229 -36
M 225 -36
L 225 -38 223 -38 223 -36 225 -36
M 117.95 -65
L 117.95 -67 115.95 -67 115.95 -65 117.95 -65
M 121.95 -65
L 121.95 -67 119.95 -67 119.95 -65 121.95 -65
M 29 -112.55
L 29 -114.55 27 -114.55 27 -112.55 29 -112.55
M 33 -112.55
L 33 -114.55 31 -114.55 31 -112.55 33 -112.55
M 37 -112.55
L 37 -114.55 35 -114.55 35 -112.55 37 -112.55 Z"/>
</g>

<g id="Layer1_2_FILL">
<path fill="#4F9544" stroke="none" d="
M 52.05 98
L 54.05 98 54.05 96 52.05 96 52.05 98
M 48.05 98
L 50.05 98 50.05 96 48.05 96 48.05 98
M 174.05 111
L 174.05 109 172.05 109 172.05 111 174.05 111
M 178.05 111
L 178.05 109 176.05 109 176.05 111 178.05 111
M 254 82
L 254 80 252 80 252 82 254 82
M 258 82
L 258 80 256 80 256 82 258 82
M 138.05 177
L 136.05 177 136.05 179 138.05 179 138.05 177
M 142.05 177
L 140.05 177 140.05 179 142.05 179 142.05 177
M 35 148
L 33 148 33 150 35 150 35 148
M 31 148
L 29 148 29 150 31 150 31 148
M 290 162
L 288 162 288 164 290 164 290 162
M 294 162
L 292 162 292 164 294 164 294 162 Z"/>
</g>
</defs>

<g transform="matrix( 1, 0, 0, 1, 0,0) ">
<use xlink:href="#Layer1_0_FILL"/>
</g>

<g transform="matrix( 1, 0, 0, 1, 11,96) ">
<g transform="matrix( 1, 0, 0, 1, 0,0) ">
<use xlink:href="#grass_0_Layer0_0_FILL"/>
</g>
</g>

<g transform="matrix( 1, 0, 0, 1, 0,0) ">
<use xlink:href="#Layer1_2_FILL"/>
</g>
</svg>
