
<svg xmlns="http://www.w3.org/2000/svg" version="1.1" xmlns:xlink="http://www.w3.org/1999/xlink" preserveAspectRatio="none" x="0px" y="0px" width="256px" height="256px" viewBox="0 0 256 256">
<defs>
<g id="Layer0_0_FILL">
<path fill="#66CC66" stroke="none" d="
M 0 0
L 0 256 256 256 256 0 0 0 Z"/>
</g>

<g id="grass_0_Layer0_0_FILL">
<path fill="#98DE82" stroke="none" d="
M 117.95 172.45
L 115.95 172.45 115.95 174.45 117.95 174.45 117.95 172.45
M 113.95 172.45
L 111.95 172.45 111.95 174.45 113.95 174.45 113.95 172.45
M 29 110.45
L 29 112.45 31 112.45 31 110.45 29 110.45
M 27 110.45
L 25 110.45 25 112.45 27 112.45 27 110.45
M 23 110.45
L 21 110.45 21 112.45 23 112.45 23 110.45
M 6 29
L 4 29 4 31 6 31 6 29
M 2 29
L 0 29 0 31 2 31 2 29
M 146.95 78
L 146.95 76 144.95 76 144.95 78 146.95 78
M 140.95 76
L 140.95 78 142.95 78 142.95 76 140.95 76
M 138.95 76
L 136.95 76 136.95 78 138.95 78 138.95 76
M 81.95 2
L 81.95 0 79.95 0 79.95 2 81.95 2
M 83.95 2
L 85.95 2 85.95 0 83.95 0 83.95 2
M -38 158.45
L -38 160.45 -36 160.45 -36 158.45 -38 158.45
M -42 158.45
L -42 160.45 -40 160.45 -40 158.45 -42 158.45
M -32 -52.55
L -32 -50.55 -30 -50.55 -30 -52.55 -32 -52.55
M -36 -52.55
L -36 -50.55 -34 -50.55 -34 -52.55 -36 -52.55
M 229 -38.55
L 227 -38.55 227 -36.55 229 -36.55 229 -38.55
M 225 -38.55
L 223 -38.55 223 -36.55 225 -36.55 225 -38.55
M 115.95 -67.55
L 115.95 -65.55 117.95 -65.55 117.95 -67.55 115.95 -67.55
M 121.95 -65.55
L 121.95 -67.55 119.95 -67.55 119.95 -65.55 121.95 -65.55
M 27 -112.55
L 29 -112.55 29 -114.55 27 -114.55 27 -112.55
M 35 -114.55
L 35 -112.55 37 -112.55 37 -114.55 35 -114.55
M 33 -112.55
L 33 -114.55 31 -114.55 31 -112.55 33 -112.55 Z"/>
</g>

<g id="Layer0_2_FILL">
<path fill="#70BB6A" stroke="none" d="
M 142.05 179
L 142.05 177 140.05 177 140.05 179 142.05 179
M 138.05 177
L 136.05 177 136.05 179 138.05 179 138.05 177
M 35 148
L 33 148 33 150 35 150 35 148
M 31 148
L 29 148 29 150 31 150 31 148
M 52.05 97.45
L 54.05 97.45 54.05 95.45 52.05 95.45 52.05 97.45
M 48.05 97.45
L 50.05 97.45 50.05 95.45 48.05 95.45 48.05 97.45
M 290 164
L 290 162 288 162 288 164 290 164
M 294 164
L 294 162 292 162 292 164 294 164
M 174.05 109.45
L 172.05 109.45 172.05 111.45 174.05 111.45 174.05 109.45
M 176.05 111.45
L 178.05 111.45 178.05 109.45 176.05 109.45 176.05 111.45
M 252 82.45
L 254 82.45 254 80.45 252 80.45 252 82.45
M 256 82.45
L 258 82.45 258 80.45 256 80.45 256 82.45 Z"/>
</g>
</defs>

<g transform="matrix( 1, 0, 0, 1, 0,0) ">
<use xlink:href="#Layer0_0_FILL"/>
</g>

<g transform="matrix( 1, 0, 0, 1, 11,96) ">
<g transform="matrix( 1, 0, 0, 1, 0,0) ">
<use xlink:href="#grass_0_Layer0_0_FILL"/>
</g>
</g>

<g transform="matrix( 1, 0, 0, 1, 0,0) ">
<use xlink:href="#Layer0_2_FILL"/>
</g>
</svg>
