
<svg xmlns="http://www.w3.org/2000/svg" version="1.1" xmlns:xlink="http://www.w3.org/1999/xlink" preserveAspectRatio="none" x="0px" y="0px" width="189px" height="41px" viewBox="0 0 189 41">
<defs>
<g id="Layer0_0_FILL">
<path fill="#FFFFFF" stroke="none" d="
M 25.95 11.4
Q 25.95 8 23.6 5.3 22.3 3.85 19.7 3 17.15 2.15 13.6 2.15
L 0 2.15 0 37.1 15.3 37.1
Q 22.5 37.1 25.4 33.85 27.9 31.05 27.9 27.4 27.9 24.1 25.95 21.85 24.05 19.65 20.8 18.95 21.7 18.55 22.05 18.35 22.4 18.2 23.3 17.5 25.95 15.5 25.95 11.4
M 11.55 8.75
Q 15 8.75 16.45 9.5 17.9 10.25 17.9 12.55 17.9 14.9 16.35 15.6 14.75 16.3 11.5 16.3
L 7.8 16.3 7.8 8.75 11.55 8.75
M 12.4 22.45
Q 16.3 22.45 18.05 23.25 19.85 24 19.85 26.45 19.85 28.85 18.2 29.7 16.5 30.5 13.15 30.5
L 7.8 30.5 7.8 22.45 12.4 22.45
M 33.45 8.85
L 30.6 8.85 30.6 10.8 31.7 10.8 31.7 37.1 35.45 40.85 39.2 37.1 39.2 10.8 40.3 10.8 40.3 8.85 37.35 8.85 37.35 0 33.45 0 33.45 8.85
M 71.2 23.65
Q 71.2 17.8 67.15 13.8 63.1 9.75 57 9.75 50.85 9.75 46.8 13.8 42.75 17.8 42.75 23.65 42.75 29.5 46.8 33.5 50.85 37.5 57 37.5 63.1 37.5 67.15 33.5 71.2 29.5 71.2 23.65
M 61.75 18.25
Q 63.65 20.35 63.65 23.65 63.65 26.95 61.75 29 59.9 31.1 57 31.1 54.05 31.1 52.2 29 50.3 26.95 50.3 23.65 50.3 20.35 52.2 18.25 54.05 16.15 57 16.15 59.9 16.15 61.75 18.25
M 94.65 19.6
L 98.55 14.5
Q 96.3 12.15 93.3 10.95 90.35 9.75 87.45 9.75 81.65 9.75 77.45 13.6 73.2 17.5 73.2 23.65 73.2 29.85 77.4 33.7 81.55 37.5 87.6 37.5 93.65 37.5 98.85 32.1
L 94.4 27.1
Q 91.4 30.85 87.65 30.85 84.8 30.85 82.65 28.95 80.55 27.05 80.55 23.6 80.55 20.2 82.65 18.3 84.8 16.35 87.75 16.35 89.6 16.35 91.45 17.2 93.35 18.05 94.65 19.6
M 117.7 10.15
L 109.35 19.05 109.35 0 101.85 0 101.85 37.1 109.35 37.1 109.35 29.35 111.8 26.8 118.65 37.1 127.55 37.1 116.9 21.05 127.15 10.15 117.7 10.15
M 151.2 13.1
Q 147.35 9.75 141.8 9.75 136.25 9.75 132.2 13.5 128.1 17.25 128.1 23.6 128.1 29.95 132.1 33.75 136.1 37.5 142.25 37.5 148.35 37.5 152.9 33.2
L 148.7 28.65
Q 146.15 31.3 142.2 31.3 139.75 31.3 137.8 29.9 135.85 28.5 135.5 26.3
L 155.1 26.3 155.1 22.3
Q 155.1 16.45 151.2 13.1
M 145.7 17.25
Q 147.25 18.55 147.5 20.95
L 135.7 20.95
Q 136 18.65 137.85 17.3 139.7 15.95 141.9 15.95 144.15 15.95 145.7 17.25
M 184.7 13.3
L 188.15 13.3 188.15 10.1 162.2 10.1 162.2 6.25 159 6.25 159 37.1 184.7 37.1 184.7 13.3
M 163.2 19.75
L 163.2 18.8 167.55 18.8 167.55 19.75 163.2 19.75
M 163.75 21.4
L 167 21.4 167 24.75 163.75 24.75 163.75 21.4
M 180.15 19.75
L 175.6 19.75 175.6 18.8 180.15 18.8 180.15 19.75
M 176.3 21.4
L 179.6 21.4 179.6 24.75 176.3 24.75 176.3 21.4 Z"/>
</g>
</defs>

<g transform="matrix( 1, 0, 0, 1, 0,0) ">
<use xlink:href="#Layer0_0_FILL"/>
</g>
</svg>
