
<svg xmlns="http://www.w3.org/2000/svg" version="1.1" xmlns:xlink="http://www.w3.org/1999/xlink" preserveAspectRatio="none" x="0px" y="0px" width="240px" height="80px" viewBox="0 0 240 80">
<defs>
<linearGradient id="Gradient_1" gradientUnits="userSpaceOnUse" x1="68.4625" y1="68.5625" x2="81.5375" y2="81.63749999999999" spreadMethod="pad">
<stop  offset="0%" stop-color="#000000" stop-opacity="0.10196078431372549"/>

<stop  offset="100%" stop-color="#000000" stop-opacity="0"/>
</linearGradient>

<linearGradient id="Gradient_2" gradientUnits="userSpaceOnUse" x1="40.0125" y1="68.2625" x2="52.4875" y2="80.7375" spreadMethod="pad">
<stop  offset="0%" stop-color="#000000" stop-opacity="0.10196078431372549"/>

<stop  offset="100%" stop-color="#000000" stop-opacity="0"/>
</linearGradient>

<linearGradient id="Gradient_3" gradientUnits="userSpaceOnUse" x1="11.412500000000001" y1="68.1625" x2="24.6875" y2="81.4375" spreadMethod="pad">
<stop  offset="0%" stop-color="#000000" stop-opacity="0.10196078431372549"/>

<stop  offset="100%" stop-color="#000000" stop-opacity="0"/>
</linearGradient>

<linearGradient id="Gradient_4" gradientUnits="userSpaceOnUse" x1="11.274999999999999" y1="39.775" x2="27.025" y2="55.525" spreadMethod="pad">
<stop  offset="0%" stop-color="#000000" stop-opacity="0.10196078431372549"/>

<stop  offset="100%" stop-color="#000000" stop-opacity="0"/>
</linearGradient>

<linearGradient id="Gradient_5" gradientUnits="userSpaceOnUse" x1="11.074999999999998" y1="11.074999999999998" x2="28.225" y2="28.225" spreadMethod="pad">
<stop  offset="0%" stop-color="#000000" stop-opacity="0.10196078431372549"/>

<stop  offset="100%" stop-color="#000000" stop-opacity="0"/>
</linearGradient>

<linearGradient id="Gradient_6" gradientUnits="userSpaceOnUse" x1="39.775" y1="11.274999999999999" x2="55.525" y2="27.025" spreadMethod="pad">
<stop  offset="0%" stop-color="#000000" stop-opacity="0.10196078431372549"/>

<stop  offset="100%" stop-color="#000000" stop-opacity="0"/>
</linearGradient>

<linearGradient id="Gradient_7" gradientUnits="userSpaceOnUse" x1="68.5125" y1="39.9625" x2="80.28750000000001" y2="51.737500000000004" spreadMethod="pad">
<stop  offset="0%" stop-color="#000000" stop-opacity="0.10196078431372549"/>

<stop  offset="100%" stop-color="#000000" stop-opacity="0"/>
</linearGradient>

<linearGradient id="Gradient_8" gradientUnits="userSpaceOnUse" x1="68.1125" y1="11.2625" x2="80.4875" y2="23.6375" spreadMethod="pad">
<stop  offset="0%" stop-color="#000000" stop-opacity="0.10196078431372549"/>

<stop  offset="100%" stop-color="#000000" stop-opacity="0"/>
</linearGradient>

<linearGradient id="Gradient_9" gradientUnits="userSpaceOnUse" x1="40.0125" y1="148.2625" x2="52.4875" y2="160.7375" spreadMethod="pad">
<stop  offset="0%" stop-color="#000000" stop-opacity="0.10196078431372549"/>

<stop  offset="100%" stop-color="#000000" stop-opacity="0"/>
</linearGradient>

<linearGradient id="Gradient_10" gradientUnits="userSpaceOnUse" x1="11.412500000000001" y1="148.16250000000002" x2="24.6875" y2="161.4375" spreadMethod="pad">
<stop  offset="0%" stop-color="#000000" stop-opacity="0.10196078431372549"/>

<stop  offset="100%" stop-color="#000000" stop-opacity="0"/>
</linearGradient>

<linearGradient id="Gradient_11" gradientUnits="userSpaceOnUse" x1="11.274999999999999" y1="119.775" x2="27.025" y2="135.525" spreadMethod="pad">
<stop  offset="0%" stop-color="#000000" stop-opacity="0.10196078431372549"/>

<stop  offset="100%" stop-color="#000000" stop-opacity="0"/>
</linearGradient>

<linearGradient id="Gradient_12" gradientUnits="userSpaceOnUse" x1="68.4625" y1="148.5625" x2="81.5375" y2="161.6375" spreadMethod="pad">
<stop  offset="0%" stop-color="#000000" stop-opacity="0.10196078431372549"/>

<stop  offset="100%" stop-color="#000000" stop-opacity="0"/>
</linearGradient>

<linearGradient id="Gradient_13" gradientUnits="userSpaceOnUse" x1="68.5125" y1="119.96249999999999" x2="80.28750000000001" y2="131.73749999999998" spreadMethod="pad">
<stop  offset="0%" stop-color="#000000" stop-opacity="0.10196078431372549"/>

<stop  offset="100%" stop-color="#000000" stop-opacity="0"/>
</linearGradient>

<linearGradient id="Gradient_14" gradientUnits="userSpaceOnUse" x1="68.1125" y1="91.2625" x2="80.4875" y2="103.6375" spreadMethod="pad">
<stop  offset="0%" stop-color="#000000" stop-opacity="0.10196078431372549"/>

<stop  offset="100%" stop-color="#000000" stop-opacity="0"/>
</linearGradient>

<linearGradient id="Gradient_15" gradientUnits="userSpaceOnUse" x1="11.074999999999998" y1="91.075" x2="28.225" y2="108.22500000000001" spreadMethod="pad">
<stop  offset="0%" stop-color="#000000" stop-opacity="0.10196078431372549"/>

<stop  offset="100%" stop-color="#000000" stop-opacity="0"/>
</linearGradient>

<linearGradient id="Gradient_16" gradientUnits="userSpaceOnUse" x1="39.775" y1="91.275" x2="55.525" y2="107.025" spreadMethod="pad">
<stop  offset="0%" stop-color="#000000" stop-opacity="0.10196078431372549"/>

<stop  offset="100%" stop-color="#000000" stop-opacity="0"/>
</linearGradient>

<linearGradient id="Gradient_17" gradientUnits="userSpaceOnUse" x1="11.412500000000001" y1="228.16250000000002" x2="24.6875" y2="241.4375" spreadMethod="pad">
<stop  offset="0%" stop-color="#000000" stop-opacity="0.10196078431372549"/>

<stop  offset="100%" stop-color="#000000" stop-opacity="0"/>
</linearGradient>

<linearGradient id="Gradient_18" gradientUnits="userSpaceOnUse" x1="40.0125" y1="228.2625" x2="52.4875" y2="240.7375" spreadMethod="pad">
<stop  offset="0%" stop-color="#000000" stop-opacity="0.10196078431372549"/>

<stop  offset="100%" stop-color="#000000" stop-opacity="0"/>
</linearGradient>

<linearGradient id="Gradient_19" gradientUnits="userSpaceOnUse" x1="68.4625" y1="228.5625" x2="81.5375" y2="241.6375" spreadMethod="pad">
<stop  offset="0%" stop-color="#000000" stop-opacity="0.10196078431372549"/>

<stop  offset="100%" stop-color="#000000" stop-opacity="0"/>
</linearGradient>

<linearGradient id="Gradient_20" gradientUnits="userSpaceOnUse" x1="68.5125" y1="199.9625" x2="80.28750000000001" y2="211.73749999999998" spreadMethod="pad">
<stop  offset="0%" stop-color="#000000" stop-opacity="0.10196078431372549"/>

<stop  offset="100%" stop-color="#000000" stop-opacity="0"/>
</linearGradient>

<linearGradient id="Gradient_21" gradientUnits="userSpaceOnUse" x1="68.1125" y1="171.2625" x2="80.4875" y2="183.6375" spreadMethod="pad">
<stop  offset="0%" stop-color="#000000" stop-opacity="0.10196078431372549"/>

<stop  offset="100%" stop-color="#000000" stop-opacity="0"/>
</linearGradient>

<linearGradient id="Gradient_22" gradientUnits="userSpaceOnUse" x1="39.775" y1="171.275" x2="55.525" y2="187.025" spreadMethod="pad">
<stop  offset="0%" stop-color="#000000" stop-opacity="0.10196078431372549"/>

<stop  offset="100%" stop-color="#000000" stop-opacity="0"/>
</linearGradient>

<linearGradient id="Gradient_23" gradientUnits="userSpaceOnUse" x1="11.274999999999999" y1="199.775" x2="27.025" y2="215.525" spreadMethod="pad">
<stop  offset="0%" stop-color="#000000" stop-opacity="0.10196078431372549"/>

<stop  offset="100%" stop-color="#000000" stop-opacity="0"/>
</linearGradient>

<linearGradient id="Gradient_24" gradientUnits="userSpaceOnUse" x1="11.074999999999998" y1="171.07500000000002" x2="28.225" y2="188.225" spreadMethod="pad">
<stop  offset="0%" stop-color="#000000" stop-opacity="0.10196078431372549"/>

<stop  offset="100%" stop-color="#000000" stop-opacity="0"/>
</linearGradient>

<g id="Layer0_0_FILL">
<path fill="#B2C2A5" stroke="none" d="
M 0 0
L 0 79.8 79.8 79.8 79.8 0 0 0
M 10.75 11
L 68.5 11 68.5 68.75 10.75 68.75 10.75 11 Z"/>

<path fill="#A5B499" stroke="none" d="
M 68.5 11
L 10.75 11 10.75 68.75 68.5 68.75 68.5 11 Z"/>
</g>

<g id="Layer0_0_MEMBER_0_FILL">
<path fill="url(#Gradient_1)" stroke="none" d="
M 61.45 75
L 75 88.75 88.55 75 75 61.45 75 75 61.45 75 Z"/>

<path fill="#C9D9BB" stroke="none" d="
M 61.45 61.45
L 61.45 75 75 75 75 61.45 61.45 61.45
M 32.9 61.45
L 32.9 75 47.05 75 47.05 61.45 32.9 61.45
M 4.8 61.45
L 4.8 75 17.55 75 17.55 61.45 4.8 61.45
M 4.8 47.05
L 17.55 47.05 17.55 32.9 4.8 32.9 4.8 47.05
M 17.55 17.55
L 17.55 4.8 4.8 4.8 4.8 17.55 17.55 17.55
M 47.05 17.55
L 47.05 4.8 32.9 4.8 32.9 17.55 47.05 17.55
M 75 32.9
L 61.45 32.9 61.45 47.05 75 47.05 75 32.9
M 75 17.55
L 75 4.8 61.45 4.8 61.45 17.55 75 17.55 Z"/>

<path fill="url(#Gradient_2)" stroke="none" d="
M 59.65 74
L 47.05 61.45 47.05 75 32.9 75 46.05 87.55 59.65 74 Z"/>

<path fill="url(#Gradient_3)" stroke="none" d="
M 31.3 75.2
L 17.55 61.45 17.55 75 4.8 75 18.35 88.15 31.3 75.2 Z"/>

<path fill="url(#Gradient_4)" stroke="none" d="
M 17.55 47.05
L 4.8 47.05 20.15 62.4 33.6 48.95 17.55 32.9 17.55 47.05 Z"/>

<path fill="url(#Gradient_5)" stroke="none" d="
M 17.55 4.8
L 17.55 17.55 4.8 17.55 21.75 34.5 34.5 21.75 17.55 4.8 Z"/>

<path fill="url(#Gradient_6)" stroke="none" d="
M 47.05 4.8
L 47.05 17.55 32.9 17.55 48.95 33.6 62.4 20.15 47.05 4.8 Z"/>

<path fill="url(#Gradient_7)" stroke="none" d="
M 75 32.9
L 75 47.05 61.45 47.05 73.3 58.95 87.15 45.05 75 32.9 Z"/>

<path fill="url(#Gradient_8)" stroke="none" d="
M 75 4.8
L 75 17.55 61.45 17.55 74.1 30.2 87.25 17.05 75 4.8 Z"/>
</g>

<g id="Layer0_0_MEMBER_1_FILL">
<path fill="#9FA892" stroke="none" d="
M 53.9 73.65
L 51.9 73.65 51.9 75.55 53.9 75.55 53.9 73.65
M 22.9 62.15
L 20.9 62.15 20.9 64.05 22.9 64.05 22.9 62.15
M 29.9 63.65
L 25.9 63.65 25.9 67.55 29.9 67.65 29.9 63.65
M 6.9 29.65
L 4.9 29.65 4.9 31.55 6.9 31.55 6.9 29.65
M 50.9 18.4
L 48.9 18.4 48.9 20.3 50.9 20.3 50.9 18.4
M 70.15 17.65
L 66.15 17.65 66.15 21.55 70.15 21.65 70.15 17.65 Z"/>
</g>

<g id="Layer0_1_FILL">
<path fill="#B2C2A5" stroke="none" d="
M 79.8 80
L 0 80 0 159.8 79.8 159.8 79.8 80
M 10.75 91
L 68.5 91 68.5 148.75 10.75 148.75 10.75 91 Z"/>

<path fill="#EE5A48" stroke="none" d="
M 68.5 91
L 10.75 91 10.75 148.75 68.5 148.75 68.5 91 Z"/>
</g>

<g id="Layer0_1_MEMBER_0_FILL">
<path fill="#C9D9BB" stroke="none" d="
M 47.05 141.45
L 32.9 141.45 32.9 155 47.05 155 47.05 141.45
M 17.55 141.45
L 4.8 141.45 4.8 155 17.55 155 17.55 141.45
M 17.55 112.9
L 4.8 112.9 4.8 127.05 17.55 127.05 17.55 112.9
M 75 141.45
L 61.45 141.45 61.45 155 75 155 75 141.45
M 61.45 127.05
L 75 127.05 75 112.9 61.45 112.9 61.45 127.05
M 75 84.8
L 61.45 84.8 61.45 97.55 75 97.55 75 84.8
M 17.55 84.8
L 4.8 84.8 4.8 97.55 17.55 97.55 17.55 84.8
M 32.9 84.8
L 32.9 97.55 47.05 97.55 47.05 84.8 32.9 84.8 Z"/>

<path fill="url(#Gradient_9)" stroke="none" d="
M 46.05 167.55
L 59.65 154 47.05 141.45 47.05 155 32.9 155 46.05 167.55 Z"/>

<path fill="url(#Gradient_10)" stroke="none" d="
M 18.35 168.15
L 31.3 155.2 17.55 141.45 17.55 155 4.8 155 18.35 168.15 Z"/>

<path fill="url(#Gradient_11)" stroke="none" d="
M 4.8 127.05
L 20.15 142.4 33.6 128.95 17.55 112.9 17.55 127.05 4.8 127.05 Z"/>

<path fill="url(#Gradient_12)" stroke="none" d="
M 61.45 155
L 75 168.75 88.55 155 75 141.45 75 155 61.45 155 Z"/>

<path fill="url(#Gradient_13)" stroke="none" d="
M 61.45 127.05
L 73.3 138.95 87.15 125.05 75 112.9 75 127.05 61.45 127.05 Z"/>

<path fill="url(#Gradient_14)" stroke="none" d="
M 75 97.55
L 61.45 97.55 74.1 110.2 87.25 97.05 75 84.8 75 97.55 Z"/>

<path fill="url(#Gradient_15)" stroke="none" d="
M 17.55 97.55
L 4.8 97.55 21.75 114.5 34.5 101.75 17.55 84.8 17.55 97.55 Z"/>

<path fill="url(#Gradient_16)" stroke="none" d="
M 47.05 84.8
L 47.05 97.55 32.9 97.55 48.95 113.6 62.4 100.15 47.05 84.8 Z"/>
</g>

<g id="Layer0_1_MEMBER_1_FILL">
<path fill="#9FA892" stroke="none" d="
M 53.9 153.65
L 51.9 153.65 51.9 155.55 53.9 155.55 53.9 153.65
M 29.9 143.65
L 25.9 143.65 25.9 147.55 29.9 147.65 29.9 143.65
M 20.9 142.15
L 20.9 144.05 22.9 144.05 22.9 142.15 20.9 142.15
M 4.9 109.65
L 4.9 111.55 6.9 111.55 6.9 109.65 4.9 109.65
M 50.9 98.4
L 48.9 98.4 48.9 100.3 50.9 100.3 50.9 98.4
M 70.15 97.65
L 66.15 97.65 66.15 101.55 70.15 101.65 70.15 97.65 Z"/>
</g>

<g id="Layer0_2_FILL">
<path fill="#B2C2A5" stroke="none" d="
M 79.8 160
L 0 160 0 239.8 79.8 239.8 79.8 160
M 10.75 171
L 68.5 171 68.5 228.75 10.75 228.75 10.75 171 Z"/>

<path fill="#366EBB" stroke="none" d="
M 68.5 171
L 10.75 171 10.75 228.75 68.5 228.75 68.5 171 Z"/>
</g>

<g id="Layer0_2_MEMBER_0_FILL">
<path fill="url(#Gradient_17)" stroke="none" d="
M 17.55 235
L 4.8 235 18.35 248.15 31.3 235.2 17.55 221.45 17.55 235 Z"/>

<path fill="#C9D9BB" stroke="none" d="
M 17.55 221.45
L 4.8 221.45 4.8 235 17.55 235 17.55 221.45
M 47.05 235
L 47.05 221.45 32.9 221.45 32.9 235 47.05 235
M 61.45 221.45
L 61.45 235 75 235 75 221.45 61.45 221.45
M 75 192.9
L 61.45 192.9 61.45 207.05 75 207.05 75 192.9
M 75 164.8
L 61.45 164.8 61.45 177.55 75 177.55 75 164.8
M 32.9 164.8
L 32.9 177.55 47.05 177.55 47.05 164.8 32.9 164.8
M 17.55 192.9
L 4.8 192.9 4.8 207.05 17.55 207.05 17.55 192.9
M 17.55 164.8
L 4.8 164.8 4.8 177.55 17.55 177.55 17.55 164.8 Z"/>

<path fill="url(#Gradient_18)" stroke="none" d="
M 59.65 234
L 47.05 221.45 47.05 235 32.9 235 46.05 247.55 59.65 234 Z"/>

<path fill="url(#Gradient_19)" stroke="none" d="
M 75 221.45
L 75 235 61.45 235 75 248.75 88.55 235 75 221.45 Z"/>

<path fill="url(#Gradient_20)" stroke="none" d="
M 61.45 207.05
L 73.3 218.95 87.15 205.05 75 192.9 75 207.05 61.45 207.05 Z"/>

<path fill="url(#Gradient_21)" stroke="none" d="
M 61.45 177.55
L 74.1 190.2 87.25 177.05 75 164.8 75 177.55 61.45 177.55 Z"/>

<path fill="url(#Gradient_22)" stroke="none" d="
M 62.4 180.15
L 47.05 164.8 47.05 177.55 32.9 177.55 48.95 193.6 62.4 180.15 Z"/>

<path fill="url(#Gradient_23)" stroke="none" d="
M 17.55 207.05
L 4.8 207.05 20.15 222.4 33.6 208.95 17.55 192.9 17.55 207.05 Z"/>

<path fill="url(#Gradient_24)" stroke="none" d="
M 17.55 177.55
L 4.8 177.55 21.75 194.5 34.5 181.75 17.55 164.8 17.55 177.55 Z"/>
</g>

<g id="Layer0_2_MEMBER_1_FILL">
<path fill="#9FA892" stroke="none" d="
M 20.9 222.15
L 20.9 224.05 22.9 224.05 22.9 222.15 20.9 222.15
M 29.9 223.65
L 25.9 223.65 25.9 227.55 29.9 227.65 29.9 223.65
M 53.9 233.65
L 51.9 233.65 51.9 235.55 53.9 235.55 53.9 233.65
M 50.9 180.3
L 50.9 178.4 48.9 178.4 48.9 180.3 50.9 180.3
M 70.15 181.65
L 70.15 177.65 66.15 177.65 66.15 181.55 70.15 181.65
M 4.9 189.65
L 4.9 191.55 6.9 191.55 6.9 189.65 4.9 189.65 Z"/>
</g>
</defs>

<g transform="matrix( 1, 0, 0, 1, 0,0) ">
<use xlink:href="#Layer0_0_FILL"/>
</g>

<g transform="matrix( 1, 0, 0, 1, 0,0) ">
<use xlink:href="#Layer0_0_MEMBER_0_FILL"/>
</g>

<g transform="matrix( 1, 0, 0, 1, 0,0) ">
<use xlink:href="#Layer0_0_MEMBER_1_FILL"/>
</g>

<g transform="matrix( 1, 0, 0, 1, 80,-80) ">
<use xlink:href="#Layer0_1_FILL"/>
</g>

<g transform="matrix( 1, 0, 0, 1, 80,-80) ">
<use xlink:href="#Layer0_1_MEMBER_0_FILL"/>
</g>

<g transform="matrix( 1, 0, 0, 1, 80,-80) ">
<use xlink:href="#Layer0_1_MEMBER_1_FILL"/>
</g>

<g transform="matrix( 1, 0, 0, 1, 160,-160) ">
<use xlink:href="#Layer0_2_FILL"/>
</g>

<g transform="matrix( 1, 0, 0, 1, 160,-160) ">
<use xlink:href="#Layer0_2_MEMBER_0_FILL"/>
</g>

<g transform="matrix( 1, 0, 0, 1, 160,-160) ">
<use xlink:href="#Layer0_2_MEMBER_1_FILL"/>
</g>
</svg>
