
<svg xmlns="http://www.w3.org/2000/svg" version="1.1" xmlns:xlink="http://www.w3.org/1999/xlink" preserveAspectRatio="none" x="0px" y="0px" width="80px" height="80px" viewBox="0 0 80 80">
<defs>
<g id="Layer0_0_FILL">
<path fill="#79C23E" stroke="none" d="
M 80 3
L 75.5 2.8 75.5 0 70 0 70 1 65 0.8 65 0 23.5 0 23.5 2 18.5 1.8 18.5 0 5 0 5 4.5 0 4.3 0 13 3 13 3 18 0 17.9 0 77 3.5 77 3.5 80 10.5 80 10.5 78 15.5 78 15.5 80 67 80 67 76.5 72 76.5 72 80 76.5 80 76.5 75.5 80 75.5 80 17.4 78 17.3 78 12.5 80 12.5 80 3
M 67.7 9.2
L 70.2 9.3 70.2 11.5 67.7 11.5 67.7 9.2
M 71.2 20.7
L 71.2 19.6 72.4 19.6 72.4 20.7 71.2 20.7
M 57.4 5.6
L 57.4 4.4 58.6 4.4 58.6 5.6 57.4 5.6
M 75.7 41.5
L 75.7 39.2 78.2 39.3 78.2 41.5 75.7 41.5
M 24.7 9.1
L 24.7 7.9 25.9 7.9 25.9 9.1 24.7 9.1
M 19.4 10.9
L 19.4 12.1 18.2 12.1 18.2 10.9 19.4 10.9
M 7.7 28.2
L 10.2 28.3 10.2 30.5 7.7 30.5 7.7 28.2
M 1.7 56
L 1.7 53.7 4.2 53.8 4.2 56 1.7 56
M 7.9 50.4
L 9.1 50.4 9.1 51.6 7.9 51.6 7.9 50.4
M 11.4 69.7
L 11.4 68.6 12.6 68.6 12.6 69.7 11.4 69.7
M 26.9 76.1
L 26.9 74.9 28.1 74.9 28.1 76.1 26.9 76.1
M 66.7 68
L 66.7 65.7 69.2 65.8 69.2 68 66.7 68
M 58.7 76.2
L 58.7 75.1 59.9 75.1 59.9 76.2 58.7 76.2 Z"/>
</g>
</defs>

<g transform="matrix( 1, 0, 0, 1, 0,0) ">
<use xlink:href="#Layer0_0_FILL"/>
</g>
</svg>
