
<svg xmlns="http://www.w3.org/2000/svg" version="1.1" xmlns:xlink="http://www.w3.org/1999/xlink" preserveAspectRatio="none" x="0px" y="0px" width="40px" height="40px" viewBox="0 0 40 40">
<defs>
<g id="Layer0_0_FILL">
<path fill="#8FCD5A" stroke="none" d="
M 37.75 1.4
L 37.75 0 35 0 35 0.5 32.5 0.4 32.5 0 11.75 0 11.75 1 9.25 0.9 9.25 0 2.5 0 2.5 2.25 0 2.15 0 6.5 1.5 6.5 1.5 9 0 8.95 0 38.5 1.75 38.5 1.75 40 5.25 40 5.25 39 7.75 39 7.75 40 33.5 40 33.5 38.25 36 38.25 36 40 38.25 40 38.25 37.75 40 37.75 40 8.7 39 8.65 39 6.25 40 6.25 40 1.5 37.75 1.4
M 33.35 34
L 33.35 32.85 34.6 32.9 34.6 34 33.35 34
M 3.85 15.25
L 3.85 14.1 5.1 14.15 5.1 15.25 3.85 15.25
M 33.85 5.75
L 33.85 4.6 35.1 4.65 35.1 5.75 33.85 5.75
M 37.85 20.75
L 37.85 19.6 39.1 19.65 39.1 20.75 37.85 20.75
M 0.85 26.85
L 2.1 26.9 2.1 28 0.85 28 0.85 26.85
M 13.45 38.05
L 13.45 37.45 14.05 37.45 14.05 38.05 13.45 38.05
M 9.1 6.05
L 9.1 5.45 9.7 5.45 9.7 6.05 9.1 6.05
M 12.35 4.55
L 12.35 3.95 12.95 3.95 12.95 4.55 12.35 4.55
M 35.6 10.35
L 35.6 9.8 36.2 9.8 36.2 10.35 35.6 10.35
M 29.35 38.1
L 29.35 37.55 29.95 37.55 29.95 38.1 29.35 38.1
M 28.7 2.8
L 28.7 2.2 29.3 2.2 29.3 2.8 28.7 2.8
M 5.7 34.85
L 5.7 34.3 6.3 34.3 6.3 34.85 5.7 34.85
M 3.95 25.8
L 3.95 25.2 4.55 25.2 4.55 25.8 3.95 25.8 Z"/>
</g>
</defs>

<g transform="matrix( 1, 0, 0, 1, 0,0) ">
<use xlink:href="#Layer0_0_FILL"/>
</g>
</svg>
