
<svg xmlns="http://www.w3.org/2000/svg" version="1.1" xmlns:xlink="http://www.w3.org/1999/xlink" preserveAspectRatio="none" x="0px" y="0px" width="92px" height="46px" viewBox="0 0 92 46">
<defs>
<g id="Layer0_0_FILL">
<path fill="#9B93B6" stroke="none" d="
M 42 42
L 42 4 4 4 4 42 42 42
M 37.7 8.25
L 35.8 8.1 35.8 6.35 37.7 6.4 37.7 8.25
M 9.2 7.3
L 7.3 7.15 7.3 5.4 9.2 5.45 9.2 7.3
M 37.25 27.25
L 39.15 27.3 39.15 29.15 37.25 29 37.25 27.25
M 34.4 37
L 34.4 33.45 38.2 33.7 38.2 37.25 34.4 37 Z"/>

<path fill="#837AA1" stroke="none" d="
M 34.4 33.45
L 34.4 37 38.2 37.25 38.2 33.7 34.4 33.45
M 39.15 27.3
L 37.25 27.25 37.25 29 39.15 29.15 39.15 27.3
M 7.3 7.15
L 9.2 7.3 9.2 5.45 7.3 5.4 7.3 7.15
M 35.8 8.1
L 37.7 8.25 37.7 6.4 35.8 6.35 35.8 8.1 Z"/>

<path fill="#FFFFFF" stroke="none" d="
M 88 42
L 88 4 50 4 50 42 88 42 Z"/>
</g>

<g id="Layer0_1_FILL">
<path fill="#FFFFFF" stroke="none" d="
M 5.9 29
L 5.9 37 6.85 37 6.85 29 5.9 29
M 6.85 10
L 5.9 10 5.9 18 6.85 18 6.85 10 Z"/>
</g>
</defs>

<g transform="matrix( 1, 0, 0, 1, 0,0) ">
<use xlink:href="#Layer0_0_FILL"/>
</g>

<g transform="matrix( 1, 0, 0, 1, 0,0) ">
<use xlink:href="#Layer0_1_FILL"/>
</g>
</svg>
