
<svg xmlns="http://www.w3.org/2000/svg" version="1.1" xmlns:xlink="http://www.w3.org/1999/xlink" preserveAspectRatio="none" x="0px" y="0px" width="92px" height="46px" viewBox="0 0 92 46">
<defs>
<g id="Layer0_0_FILL">
<path fill="#E28F2B" stroke="none" d="
M 7 41.9
L 7 5 4 5 4 41.9 7 41.9 Z"/>

<path fill="#77665F" stroke="none" d="
M 41 41.9
L 41 10 46 10 46 5 12.2 5 12.2 0 7 0 7 5 7 41.9 41 41.9 Z"/>

<path fill="#FFFFFF" stroke="none" d="
M 87 41.9
L 87 10 92 10 92 5 58.2 5 58.2 0 53 0 53 5 50 5 50 41.9 87 41.9 Z"/>
</g>
</defs>

<g transform="matrix( 1, 0, 0, 1, 0,0) ">
<use xlink:href="#Layer0_0_FILL"/>
</g>
</svg>
