
<svg xmlns="http://www.w3.org/2000/svg" version="1.1" xmlns:xlink="http://www.w3.org/1999/xlink" preserveAspectRatio="none" x="0px" y="0px" width="20px" height="20px" viewBox="0 0 20 20">
<defs>
<g id="Layer0_0_FILL">
<path fill="#DBD6CD" stroke="none" d="
M 5.7 16.95
L 7 16.95 7 20 9.45 20 9.45 16.95 10.75 16.95 10.75 20 13.05 20 13.05 16.95 14.35 16.95 14.35 20 20 20 20 0 0 0 0 20 5.7 20 5.7 16.95
M 13.55 7.2
L 16.8 7.2 16.8 10.4 13.55 10.4 13.55 7.2
M 3.4 7.2
L 6.65 7.2 6.65 10.4 3.4 10.4 3.4 7.2 Z"/>
</g>
</defs>

<g transform="matrix( 1, 0, 0, 1, 0,0) ">
<use xlink:href="#Layer0_0_FILL"/>
</g>
</svg>
