
<svg xmlns="http://www.w3.org/2000/svg" version="1.1" xmlns:xlink="http://www.w3.org/1999/xlink" preserveAspectRatio="none" x="0px" y="0px" width="92px" height="46px" viewBox="0 0 92 46">
<defs>
<g id="Layer0_0_FILL">
<path fill="#FFFFFF" stroke="none" d="
M 87 20.6
L 87 5 51.1 5 51.1 8 49 8 49 17.6 51.1 17.6 51.1 28.7 49 28.7 49 38.3 51.1 38.3 51.1 41.3 87 41.3 87 25.7 92 28.45 92 17.6 87 20.6 Z"/>
</g>

<g id="Layer0_1_FILL">
<path fill="#646E80" stroke="none" d="
M 5.1 5
L 5.1 8 6.1 8 6.1 17.6 5.1 17.6 5.1 28.7 6.1 28.7 6.1 38.3 5.1 38.3 5.1 41.3 7 41.3 7 5 5.1 5 Z"/>

<path fill="#366EBB" stroke="none" d="
M 41 20.6
L 41 5 7 5 7 41.3 41 41.3 41 25.7 46 28.45 46 17.6 41 20.6 Z"/>

<path fill="#E9E9E9" stroke="none" d="
M 5.1 38.3
L 6.1 38.3 6.1 28.7 5.1 28.7 3 28.7 3 38.3 5.1 38.3
M 6.1 8
L 5.1 8 3 8 3 17.6 5.1 17.6 6.1 17.6 6.1 8 Z"/>
</g>
</defs>

<g transform="matrix( 1, 0, 0, 1, 0,0) ">
<use xlink:href="#Layer0_0_FILL"/>
</g>

<g transform="matrix( 1, 0, 0, 1, 0,0) ">
<use xlink:href="#Layer0_1_FILL"/>
</g>
</svg>
