
<svg xmlns="http://www.w3.org/2000/svg" version="1.1" xmlns:xlink="http://www.w3.org/1999/xlink" preserveAspectRatio="none" x="0px" y="0px" width="256px" height="256px" viewBox="0 0 256 256">
<defs>
<g id="Symbol_2_0_Layer0_0_FILL">
<path fill="#494E56" stroke="none" d="
M 22.75 41.95
L 22.75 18.95 39.7 8.6 20.25 1.1 3.35 11.65 3.6 34.05 22.75 41.95 Z"/>

<path fill="#343943" stroke="none" d="
M 22.75 41.95
L 39.7 31.7 39.7 8.6 22.75 18.95 22.75 41.95 Z"/>
</g>

<g id="Symbol_3_0_Layer0_0_FILL">
<path fill="#214C87" stroke="none" d="
M 61.95 117.05
L 61.95 148.55 108 120.3 108 88.15 61.95 117.05
M 61.95 155.4
L 61.95 180.05 108 152.45 108 126.5 61.95 155.4
M 40.95 140.55
L 61.95 117.05 0 94.15 20 132.55 40.95 140.55 Z"/>

<path fill="#2960AD" stroke="none" d="
M 61.95 180.05
L 61.95 155.4 0 131 0 155.75 61.95 180.05
M 0 124.95
L 20 132.55 0 94.15 0 124.95
M 61.95 117.05
L 40.95 140.55 61.95 148.55 61.95 117.05 Z"/>

<path fill="#343943" stroke="none" d="
M 61.95 148.55
L 61.95 155.4 108 126.5 108 120.3 61.95 148.55 Z"/>

<path fill="#494E56" stroke="none" d="
M 0 124.95
L 0 131 61.95 155.4 61.95 148.55 40.95 140.55 20 132.55 0 124.95 Z"/>

<path fill="#DEC8AF" stroke="none" d="
M 0 54.2
L 0 94.15 61.95 117.05 61.95 97.55 61.95 77.35 0 54.2 Z"/>

<path fill="#665953" stroke="none" d="
M 73.3 10.5
L 73.3 3.9 65.6 7.9 73.3 10.5
M 116.7 36.75
L 116.7 25.1 108 29.9 61.95 57.15 61.95 77.35 61.95 97.55 108 69 108 42 116.7 36.75 Z"/>

<path fill="#C6AE93" stroke="none" d="
M 108 88.15
L 108 69 61.95 97.55 61.95 117.05 108 88.15 Z"/>

<path fill="#77665F" stroke="none" d="
M 108 29.9
L 116.7 25.1 73.3 10.5 65.6 7.9 73.3 3.9 61.15 0 17.6 25.25 17.6 19.1 8.2 14.6 0 20.6 0 54.2 61.95 77.35 61.95 57.15 108 29.9 Z"/>
</g>

<g id="Symbol_3_0_Layer0_1_FILL">
<path fill="#333333" stroke="none" d="
M 40.05 82.15
L 40.05 90.2 48.1 93.15 48.1 85.1 40.05 82.15
M 16.45 82.45
L 16.45 74.4 8.6 71.55 8.6 79.6 16.45 82.45 Z"/>
</g>

<g id="Symbol_3_0_Layer0_2_FILL">
<path fill="#77665E" stroke="none" d="
M 39.95 74.85
L 39.95 77.95 51.4 81.9 51.4 78.8 39.95 74.85
M 16.9 70
L 16.9 67.1 5.8 63.3 5.8 66.15 16.9 70 Z"/>
</g>
</defs>

<g transform="matrix( 0.5886993408203125, 0, 0, 0.5886993408203125, 128.85,155.25) ">
<g transform="matrix( 1, 0, 0, 1, 0,0) ">
<use xlink:href="#Symbol_2_0_Layer0_0_FILL"/>
</g>
</g>

<g transform="matrix( 0.5886993408203125, 0, 0, 0.5886993408203125, 103.95,145.15) ">
<g transform="matrix( 1, 0, 0, 1, 0,0) ">
<use xlink:href="#Symbol_2_0_Layer0_0_FILL"/>
</g>
</g>

<g transform="matrix( 0.5886993408203125, 0, 0, 0.5886993408203125, 95.75,66.35) ">
<g transform="matrix( 1, 0, 0, 1, 0,0) ">
<use xlink:href="#Symbol_3_0_Layer0_0_FILL"/>
</g>

<g transform="matrix( 1, 0, 0, 1, 0,0) ">
<use xlink:href="#Symbol_3_0_Layer0_1_FILL"/>
</g>

<g transform="matrix( 1, 0, 0, 1, 0,0) ">
<use xlink:href="#Symbol_3_0_Layer0_2_FILL"/>
</g>
</g>
</svg>
