
<svg xmlns="http://www.w3.org/2000/svg" version="1.1" xmlns:xlink="http://www.w3.org/1999/xlink" preserveAspectRatio="none" x="0px" y="0px" width="40px" height="40px" viewBox="0 0 40 40">
<defs>
<g id="Layer0_0_FILL">
<path fill="#FFFFFF" fill-opacity="0.6" stroke="none" d="
M 40 20
Q 40 11.7 34.15 5.8 28.35 0 20 0 11.7 0 5.85 5.8 0 11.7 0 20 0 28.35 5.85 34.15 11.7 40 20 40 28.35 40 34.15 34.15 40 28.35 40 20
M 27.05 20.35
L 28.5 21.8 26.05 24.25 29.55 27.75 27.65 29.65 24.2 26.1 21.8 28.5 20.3 27 21.6 25.8 11.4 15.6 11.4 11.4 15.6 11.4 25.75 21.55 27.05 20.35 Z"/>
</g>
</defs>

<g transform="matrix( 1, 0, 0, 1, 0,0) ">
<use xlink:href="#Layer0_0_FILL"/>
</g>
</svg>
