
<svg xmlns="http://www.w3.org/2000/svg" version="1.1" xmlns:xlink="http://www.w3.org/1999/xlink" preserveAspectRatio="none" x="0px" y="0px" width="80px" height="80px" viewBox="0 0 80 80">
<defs>
<g id="Layer0_0_FILL">
<path fill="#FFFFFF" fill-opacity="0.6" stroke="none" d="
M 80 40
Q 80 23.4 68.3 11.6 56.7 0 40 0 23.4 0 11.7 11.6 0 23.4 0 40 0 56.7 11.7 68.3 23.4 80 40 80 56.7 80 68.3 68.3 80 56.7 80 40
M 57 43.6
L 52.1 48.5 59.1 55.5 55.3 59.3 48.4 52.2 43.6 57 40.6 54 43.2 51.6 22.8 31.2 22.8 22.8 31.2 22.8 51.5 43.1 54.1 40.7 57 43.6 Z"/>
</g>
</defs>

<g transform="matrix( 1, 0, 0, 1, 0,0) ">
<use xlink:href="#Layer0_0_FILL"/>
</g>
</svg>
