
<svg xmlns="http://www.w3.org/2000/svg" version="1.1" xmlns:xlink="http://www.w3.org/1999/xlink" preserveAspectRatio="none" x="0px" y="0px" width="40px" height="40px" viewBox="0 0 40 40">
<defs>
<g id="Layer0_0_FILL">
<path fill="#FFFFFF" fill-opacity="0.6" stroke="none" d="
M 40 20
Q 40 11.7 34.15 5.8 28.35 0 20 0 11.7 0 5.85 5.8 0 11.7 0 20 0 28.35 5.85 34.15 11.7 40 20 40 28.35 40 34.15 34.15 40 28.35 40 20
M 32.85 16.4
L 33.65 15.6 37.95 19.9 33.65 24.2 32.85 23.4 36.35 19.9 32.85 16.4
M 6.15 15.6
L 6.95 16.4 3.45 19.9 6.95 23.4 6.15 24.2 1.85 19.9 6.15 15.6
M 16.7 32.65
L 20.2 36.15 23.7 32.65 24.5 33.45 20.2 37.75 15.9 33.45 16.7 32.65
M 24.5 6.15
L 23.7 6.95 20.2 3.45 16.7 6.95 15.9 6.15 20.2 1.85 24.5 6.15 Z"/>
</g>
</defs>

<g transform="matrix( 1, 0, 0, 1, 0,0) ">
<use xlink:href="#Layer0_0_FILL"/>
</g>
</svg>
