
<svg xmlns="http://www.w3.org/2000/svg" version="1.1" xmlns:xlink="http://www.w3.org/1999/xlink" preserveAspectRatio="none" x="0px" y="0px" width="80px" height="80px" viewBox="0 0 80 80">
<defs>
<g id="Layer0_0_FILL">
<path fill="#FFFFFF" fill-opacity="0.6" stroke="none" d="
M 80 40
Q 80 23.4 68.3 11.6 56.7 0 40 0 23.4 0 11.7 11.6 0 23.4 0 40 0 56.7 11.7 68.3 23.4 80 40 80 56.7 80 68.3 68.3 80 56.7 80 40
M 65.7 46.8
L 72.7 39.8 65.7 32.8 67.3 31.2 75.9 39.8 67.3 48.4 65.7 46.8
M 49 12.3
L 47.4 13.9 40.4 6.9 33.4 13.9 31.8 12.3 40.4 3.7 49 12.3
M 12.3 48.4
L 3.7 39.8 12.3 31.2 13.9 32.8 6.9 39.8 13.9 46.8 12.3 48.4
M 40.4 75.5
L 31.8 66.9 33.4 65.3 40.4 72.3 47.4 65.3 49 66.9 40.4 75.5 Z"/>
</g>
</defs>

<g transform="matrix( 1, 0, 0, 1, 0,0) ">
<use xlink:href="#Layer0_0_FILL"/>
</g>
</svg>
