
<svg xmlns="http://www.w3.org/2000/svg" version="1.1" xmlns:xlink="http://www.w3.org/1999/xlink" preserveAspectRatio="none" x="0px" y="0px" width="40px" height="40px" viewBox="0 0 40 40">
<defs>
<g id="Layer0_0_FILL">
<path fill="#FFFFFF" stroke="none" d="
M 31.25 0.4
L 31.25 3.9 28.15 3.9 28.15 0.4 25 0.4 25 3.9 21.95 3.9 21.95 0.4 18.8 0.4 18.8 3.9 15.65 3.9 15.65 0.4 12.55 0.4 12.55 3.9 9.45 3.9 9.45 0.4 5.95 0.4 5.95 39.4 16.05 39.4 16.05 28.85 23.9 28.85 23.9 39.4 34.05 39.4 34.05 0.4 31.25 0.4 Z"/>
</g>
</defs>

<g transform="matrix( 1, 0, 0, 1, 0,0) ">
<use xlink:href="#Layer0_0_FILL"/>
</g>
</svg>
