
<svg xmlns="http://www.w3.org/2000/svg" version="1.1" xmlns:xlink="http://www.w3.org/1999/xlink" preserveAspectRatio="none" x="0px" y="0px" width="92px" height="46px" viewBox="0 0 92 46">
<defs>
<g id="Layer0_0_FILL">
<path fill="#FFFFFF" stroke="none" d="
M 88 41.9
L 88 5 50.55 5 50.55 11.15 50.5 11.15 50.5 16.3 50.55 16.3 46.1 23.25 50.55 30.35 50.55 30.45 50.5 30.45 50.5 35.6 50.55 35.6 50.55 41.9 88 41.9 Z"/>

<path fill="#EE5A48" stroke="none" d="
M 7.5 35.45
L 4.55 30.35 4.55 41.9 7.5 41.9 7.5 35.45
M 7.5 5
L 4.55 5 4.55 16.25 7.5 11.1 7.5 5 Z"/>

<path fill="#DBD6CD" stroke="none" d="
M 4.55 16.25
L 0.1 23.25 4.55 30.35 7.5 35.45 7.5 11.1 4.55 16.25 Z"/>

<path fill="#5C6370" stroke="none" d="
M 42 41.9
L 42 5 7.5 5 7.5 11.1 7.5 35.45 7.5 41.9 42 41.9 Z"/>
</g>

<g id="Layer0_1_FILL">
<path fill="#525966" stroke="none" d="
M 7.5 30.45
L 4.5 30.45 4.5 35.6 7.5 35.6 7.5 30.45
M 7.5 11.15
L 4.5 11.15 4.5 16.3 7.5 16.3 7.5 11.15 Z"/>
</g>
</defs>

<g transform="matrix( 1, 0, 0, 1, 0,0) ">
<use xlink:href="#Layer0_0_FILL"/>
</g>

<g transform="matrix( 1, 0, 0, 1, 0,0) ">
<use xlink:href="#Layer0_1_FILL"/>
</g>
</svg>
