
<svg xmlns="http://www.w3.org/2000/svg" version="1.1" xmlns:xlink="http://www.w3.org/1999/xlink" preserveAspectRatio="none" x="0px" y="0px" width="256px" height="256px" viewBox="0 0 256 256">
<defs>
<g id="Symbol_2_0_Layer0_0_FILL">
<path fill="#494E56" stroke="none" d="
M 22.75 41.95
L 22.75 18.95 39.7 8.6 20.25 1.1 3.35 11.65 3.6 34.05 22.75 41.95 Z"/>

<path fill="#343943" stroke="none" d="
M 22.75 41.95
L 39.7 31.7 39.7 8.6 22.75 18.95 22.75 41.95 Z"/>
</g>

<g id="Layer0_2_FILL">
<path fill="#DE4330" stroke="none" d="
M 132.2 153.8
L 132.2 135.25 119.85 149.1 132.2 153.8
M 132.2 172.35
L 132.2 157.85 95.75 143.45 95.75 158.05 132.2 172.35
M 95.75 121.8
L 95.75 139.9 107.5 144.4 95.75 121.8 Z"/>

<path fill="#494E56" stroke="none" d="
M 95.75 139.9
L 95.75 143.45 132.2 157.85 132.2 153.8 119.85 149.1 107.5 144.4 95.75 139.9 Z"/>

<path fill="#9F3325" stroke="none" d="
M 95.75 121.8
L 107.5 144.4 119.85 149.1 132.2 135.25 95.75 121.8
M 159.35 118.25
L 132.2 135.25 132.2 153.8 159.35 137.15 159.35 118.25
M 132.2 172.35
L 159.35 156.1 159.35 140.8 132.2 157.85 132.2 172.35 Z"/>

<path fill="#343943" stroke="none" d="
M 159.35 140.8
L 159.35 137.15 132.2 153.8 132.2 157.85 159.35 140.8 Z"/>

<path fill="#DEC8AF" stroke="none" d="
M 132.2 135.25
L 132.2 123.8 132.2 111.9 95.75 98.25 95.75 121.8 132.2 135.25 Z"/>

<path fill="#C6AE93" stroke="none" d="
M 159.35 118.25
L 159.35 106.95 132.2 123.8 132.2 135.25 159.35 118.25 Z"/>

<path fill="#665953" stroke="none" d="
M 138.9 72.55
L 138.9 68.65 134.35 71 138.9 72.55
M 164.45 88
L 164.45 81.15 132.2 100 132.2 111.9 132.2 123.8 159.35 106.95 159.35 91.1 164.45 88 Z"/>

<path fill="#77665F" stroke="none" d="
M 95.75 78.5
L 95.75 98.25 132.2 111.9 132.2 100 164.45 81.15 138.9 72.55 134.35 71 138.9 68.65 131.75 66.35 106.1 81.2 106.1 77.6 100.6 74.95 95.75 78.5 Z"/>
</g>

<g id="Layer0_2_MEMBER_0_FILL">
<path fill="#333333" stroke="none" d="
M 16.45 74.4
L 8.6 71.55 8.6 79.6 16.45 82.45 16.45 74.4
M 40.05 82.15
L 40.05 90.2 48.1 93.15 48.1 85.1 40.05 82.15 Z"/>
</g>

<g id="Layer0_2_MEMBER_1_FILL">
<path fill="#77665E" stroke="none" d="
M 16.9 67.1
L 5.8 63.3 5.8 66.15 16.9 70 16.9 67.1
M 39.95 74.85
L 39.95 77.95 51.4 81.9 51.4 78.8 39.95 74.85 Z"/>
</g>
</defs>

<g transform="matrix( 0.5886993408203125, 0, 0, 0.5886993408203125, 128.85,155.25) ">
<g transform="matrix( 1, 0, 0, 1, 0,0) ">
<use xlink:href="#Symbol_2_0_Layer0_0_FILL"/>
</g>
</g>

<g transform="matrix( 0.5886993408203125, 0, 0, 0.5886993408203125, 103.95,145.15) ">
<g transform="matrix( 1, 0, 0, 1, 0,0) ">
<use xlink:href="#Symbol_2_0_Layer0_0_FILL"/>
</g>
</g>

<g transform="matrix( 1, 0, 0, 1, 0,0) ">
<use xlink:href="#Layer0_2_FILL"/>
</g>

<g transform="matrix( 0.5886993408203125, 0, 0, 0.5886993408203125, 95.75,66.35) ">
<use xlink:href="#Layer0_2_MEMBER_0_FILL"/>
</g>

<g transform="matrix( 0.5886993408203125, 0, 0, 0.5886993408203125, 95.75,66.35) ">
<use xlink:href="#Layer0_2_MEMBER_1_FILL"/>
</g>
</svg>
