
<svg xmlns="http://www.w3.org/2000/svg" version="1.1" xmlns:xlink="http://www.w3.org/1999/xlink" preserveAspectRatio="none" x="0px" y="0px" width="256px" height="256px" viewBox="0 0 256 256">
<defs>
<g id="Layer0_0_FILL">
<path fill="#DE4330" stroke="none" d="
M 132.2 135.25
L 119.85 149.1 132.2 153.8 132.2 135.25
M 117.35 166.5
L 120.65 167.8 130.9 171.85 132.2 172.35 132.2 157.85 95.75 143.45 95.75 158.05 106 162.05 117.35 166.5
M 107.5 144.4
L 95.75 121.8 95.75 139.9 107.5 144.4
M 142.2 78.55
L 154 75.25 136.65 69.6 136.65 76.7 121.95 71.9 95.75 86.85 95.75 103.9 132.2 117.85 132.2 100 159.3 84.15 154 82.4 142.2 78.55 Z"/>

<path fill="#494E56" stroke="none" d="
M 142.25 166.4
L 144.45 165 132.2 172.35 130.9 171.85 130.95 175.3 142.25 179.95 142.25 166.4
M 106 162.05
L 106.05 165.2 117.35 169.85 117.35 166.5 106 162.05
M 95.75 139.9
L 95.75 143.45 132.2 157.85 132.2 153.8 119.85 149.1 107.5 144.4 95.75 139.9
M 132.2 123.8
L 132.2 117.85 95.75 103.9 95.75 109.7 132.2 123.8 Z"/>

<path fill="#9F3325" stroke="none" d="
M 144.45 165
L 152.2 160.35 159.35 156.1 159.35 140.8 132.2 157.85 132.2 172.35 144.45 165
M 95.75 121.8
L 107.5 144.4 119.85 149.1 132.2 135.25 95.75 121.8
M 159.35 118.25
L 132.2 135.25 132.2 153.8 159.35 137.15 159.35 118.25
M 159.35 84.1
L 159.3 84.15 132.2 100 132.2 117.85 159.35 101.4 159.35 84.1
M 154 75.25
L 142.2 78.55 154 82.4 154 75.25 Z"/>

<path fill="#343943" stroke="none" d="
M 152.2 160.35
L 144.45 165 142.25 166.4 142.25 179.95 152.2 173.9 152.2 160.35
M 120.65 167.8
L 117.35 166.5 117.35 169.85 120.65 167.8
M 159.35 140.8
L 159.35 137.15 132.2 153.8 132.2 157.85 159.35 140.8
M 159.35 106.95
L 159.35 101.4 132.2 117.85 132.2 123.8 159.35 106.95 Z"/>

<path fill="#DEC8AF" stroke="none" d="
M 132.2 135.25
L 132.2 123.8 95.75 109.7 95.75 121.8 132.2 135.25 Z"/>

<path fill="#C6AE93" stroke="none" d="
M 159.35 118.25
L 159.35 106.95 132.2 123.8 132.2 135.25 159.35 118.25 Z"/>
</g>

<g id="Layer0_1_FILL">
<path fill="#E7E7E7" stroke="none" d="
M 105.65 117.75
L 105.65 109.35 108.65 107.1 96.95 102.5 94 104.75 94 113.35 105.65 117.75 Z"/>

<path fill="#CCCCCC" stroke="none" d="
M 105.65 109.35
L 105.65 117.75 108.65 115.55 108.65 107.1 105.65 109.35 Z"/>
</g>

<g id="Layer0_1_MEMBER_0_FILL">
<path fill="#609EC2" stroke="none" d="
M 103.5 115
L 103.5 110.35 95.8 107.5 95.8 112.05 103.5 115 Z"/>
</g>

<g id="Layer0_2_FILL">
<path fill="#E7E7E7" stroke="none" d="
M 126.85 125.9
L 126.85 117.5 129.85 115.25 118.15 110.65 115.2 112.9 115.2 121.5 126.85 125.9 Z"/>

<path fill="#CCCCCC" stroke="none" d="
M 126.85 117.5
L 126.85 125.9 129.85 123.7 129.85 115.25 126.85 117.5 Z"/>
</g>

<g id="Layer0_2_MEMBER_0_FILL">
<path fill="#609EC2" stroke="none" d="
M 124.7 123.15
L 124.7 118.5 117 115.65 117 120.2 124.7 123.15 Z"/>
</g>
</defs>

<g transform="matrix( 1, 0, 0, 1, 0,0) ">
<use xlink:href="#Layer0_0_FILL"/>
</g>

<g transform="matrix( 1, 0, 0, 1, 0,0) ">
<use xlink:href="#Layer0_1_FILL"/>
</g>

<g transform="matrix( 1, 0, 0, 1, 0,0) ">
<use xlink:href="#Layer0_1_MEMBER_0_FILL"/>
</g>

<g transform="matrix( 1, 0, 0, 1, 0,0) ">
<use xlink:href="#Layer0_2_FILL"/>
</g>

<g transform="matrix( 1, 0, 0, 1, 0,0) ">
<use xlink:href="#Layer0_2_MEMBER_0_FILL"/>
</g>
</svg>
