
<svg xmlns="http://www.w3.org/2000/svg" version="1.1" xmlns:xlink="http://www.w3.org/1999/xlink" preserveAspectRatio="none" x="0px" y="0px" width="92px" height="46px" viewBox="0 0 92 46">
<defs>
<g id="Layer0_0_FILL">
<path fill="#FFFFFF" stroke="none" d="
M 92 28.85
L 92 18 87 21 87 5 51.1 5 51.1 8 49 8 49 17.6 51.1 17.6 51.1 29.2 49 29.2 49 38.8 51.1 38.8 51.1 41.8 87 41.8 87 26.1 92 28.85 Z"/>

<path fill="#E9E9E9" stroke="none" d="
M 5.1 29.2
L 3 29.2 3 38.8 5.1 38.8 6.1 38.8 6.1 29.2 5.1 29.2
M 6.1 8
L 5.1 8 3 8 3 17.6 5.1 17.6 6.1 17.6 6.1 8 Z"/>

<path fill="#5C6370" stroke="none" d="
M 5.1 8
L 6.1 8 6.1 17.6 5.1 17.6 5.1 29.2 6.1 29.2 6.1 38.8 5.1 38.8 5.1 41.8 7 41.8 7 5 5.1 5 5.1 8 Z"/>

<path fill="#EE5A48" stroke="none" d="
M 46 18
L 41 21 41 5 7 5 7 41.8 41 41.8 41 26.1 46 28.85 46 18 Z"/>
</g>
</defs>

<g transform="matrix( 1, 0, 0, 1, 0,0) ">
<use xlink:href="#Layer0_0_FILL"/>
</g>
</svg>
