
<svg xmlns="http://www.w3.org/2000/svg" version="1.1" xmlns:xlink="http://www.w3.org/1999/xlink" preserveAspectRatio="none" x="0px" y="0px" width="40px" height="40px" viewBox="0 0 40 40">
<defs>
<linearGradient id="Gradient_1" gradientUnits="userSpaceOnUse" x1="20.549999999999997" y1="30.049999999999997" x2="28.25" y2="37.75" spreadMethod="pad">
<stop  offset="0%" stop-color="#000000" stop-opacity="0.2"/>

<stop  offset="100%" stop-color="#000000" stop-opacity="0"/>
</linearGradient>

<g id="Layer0_0_FILL">
<path fill="url(#Gradient_1)" stroke="none" d="
M 17.1 31.3
L 27.2 41.4 41.05 27.6 30.65 17.9 17.1 31.3 Z"/>
</g>

<g id="Layer0_1_FILL">
<path fill="#FF698E" stroke="none" d="
M 12.7 13.2
L 5.75 20.2 12.7 27.15 19.7 20.2 12.7 13.2 Z"/>

<path fill="#F06386" stroke="none" d="
M 33.65 20.2
L 26.65 13.2 19.7 20.2 12.7 27.15 19.7 34.15 33.65 20.2 Z"/>

<path fill="#F06386" fill-opacity="0.2980392156862745" stroke="none" d="
M 12.7 13.2
L 19.7 20.2 26.65 13.2 19.7 6.25 12.7 13.2 Z"/>
</g>
</defs>

<g transform="matrix( 1, 0, 0, 1, 0,0) ">
<use xlink:href="#Layer0_0_FILL"/>
</g>

<g transform="matrix( 1, 0, 0, 1, 0,0) ">
<use xlink:href="#Layer0_1_FILL"/>
</g>
</svg>
