
<svg xmlns="http://www.w3.org/2000/svg" version="1.1" xmlns:xlink="http://www.w3.org/1999/xlink" preserveAspectRatio="none" x="0px" y="0px" width="40px" height="40px" viewBox="0 0 40 40">
<defs>
<g id="Layer0_0_FILL">
<path fill="#C6C6C6" stroke="none" d="
M 8.75 17.1
L 2.6 19.95 8.6 22.9 9.45 20.5 8.05 20.5 7.2 20 8.05 19.6 9.45 19.6 8.75 17.1 Z"/>

<path fill="#776553" stroke="none" d="
M 33.55 20.1
L 32.4 19.6 29.85 19.6 9.45 19.6 8.05 19.6 7.2 20 8.05 20.5 9.45 20.5 29.85 20.5 32.3 20.5 33.55 20.1 Z"/>

<path fill="#DB7D34" stroke="none" d="
M 32.4 19.6
L 33.55 20.1 32.3 20.5 29.85 20.5 31.2 21.9 36.45 21.9 34.95 20.1 36.35 18.05 31.2 18.05 29.85 19.6 32.4 19.6 Z"/>
</g>
</defs>

<g transform="matrix( 1, 0, 0, 1, 0,0) ">
<use xlink:href="#Layer0_0_FILL"/>
</g>
</svg>
