
<svg xmlns="http://www.w3.org/2000/svg" version="1.1" xmlns:xlink="http://www.w3.org/1999/xlink" preserveAspectRatio="none" x="0px" y="0px" width="960px" height="160px" viewBox="0 0 960 160">
<defs>
<g id="Layer2_0_FILL">
<path fill="#CBC6BC" stroke="none" d="
M 75.1 51.1
L 70.5 59 78.45 63.55 82.95 55.7 75.1 51.1 Z"/>
</g>

<g id="Layer2_1_FILL">
<path fill="#CBC6BC" stroke="none" d="
M 59.9 100.1
L 66.2 106.6 72.75 100.25 66.45 93.75 59.9 100.1 Z"/>
</g>

<g id="Layer2_2_FILL">
<path fill="#727157" stroke="none" d="
M 101.35 65.5
L 101.35 58.9 92.25 58.9 92.25 65.5 101.35 65.5
M 101.35 94.5
L 92.25 94.5 92.25 101.1 101.35 101.1 101.35 94.5 Z"/>

<path fill="#696853" stroke="none" d="
M 101.35 68
L 101.35 65.5 92.25 65.5 92.25 68 101.35 68
M 92.25 92
L 92.25 94.5 101.35 94.5 101.35 92 92.25 92 Z"/>

<path fill="#7E785C" stroke="none" d="
M 105.25 68
L 101.35 68 92.25 68 88 68 88 92 92.25 92 101.35 92 105.25 92 105.25 68 Z"/>
</g>

<g id="Layer2_3_FILL">
<path fill="#CBC6BC" stroke="none" d="
M 227.2 106.6
L 233.75 100.25 227.45 93.75 220.9 100.1 227.2 106.6
M 235.8 55.55
L 227.05 53.1 224.65 61.95 233.55 64.3 235.8 55.55 Z"/>
</g>

<g id="Layer2_4_FILL">
<path fill="#CBC6BC" stroke="none" d="
M 388.2 106.6
L 394.75 100.25 388.45 93.75 381.9 100.1 388.2 106.6
M 385.4 55.25
L 376.65 52.85 374.25 61.7 383.1 64 385.4 55.25 Z"/>
</g>

<g id="Layer2_5_FILL">
<path fill="#CBC6BC" stroke="none" d="
M 549.2 106.6
L 555.75 100.25 549.45 93.75 542.9 100.1 549.2 106.6
M 544.55 54.6
L 535.5 54 534.9 63.15 544.05 63.65 544.55 54.6 Z"/>
</g>

<g id="Layer2_6_FILL">
<path fill="#CBC6BC" stroke="none" d="
M 710.2 106.6
L 716.75 100.25 710.45 93.75 703.9 100.1 710.2 106.6
M 704.55 54.6
L 695.5 54 694.9 63.15 704.05 63.65 704.55 54.6 Z"/>
</g>

<g id="Layer2_7_FILL">
<path fill="#CBC6BC" stroke="none" d="
M 868.2 106.6
L 874.75 100.25 868.45 93.75 861.9 100.1 868.2 106.6
M 864.55 54.6
L 855.5 54 854.9 63.15 864.05 63.65 864.55 54.6 Z"/>
</g>

<g id="Layer2_8_FILL">
<path fill="#727157" stroke="none" d="
M 101.35 94.5
L 92.25 94.5 92.25 101.1 101.35 101.1 101.35 94.5
M 101.35 65.5
L 101.35 58.9 92.25 58.9 92.25 65.5 101.35 65.5 Z"/>

<path fill="#696853" stroke="none" d="
M 92.25 92
L 92.25 94.5 101.35 94.5 101.35 92 92.25 92
M 101.35 68
L 101.35 65.5 92.25 65.5 92.25 68 101.35 68 Z"/>

<path fill="#7E785C" stroke="none" d="
M 105.25 68
L 101.35 68 92.25 68 88 68 88 92 92.25 92 101.35 92 105.25 92 105.25 68 Z"/>
</g>

<g id="Layer2_9_FILL">
<path fill="#727157" stroke="none" d="
M 263.75 94.5
L 254.65 94.5 254.65 101.1 263.75 101.1 263.75 94.5
M 263.75 65.5
L 263.75 58.9 254.65 58.9 254.65 65.5 263.75 65.5 Z"/>

<path fill="#696853" stroke="none" d="
M 254.65 92
L 254.65 94.5 263.75 94.5 263.75 92 254.65 92
M 263.75 68
L 263.75 65.5 254.65 65.5 254.65 68 263.75 68 Z"/>

<path fill="#7E785C" stroke="none" d="
M 267.65 68
L 263.75 68 254.65 68 250.4 68 250.4 92 254.65 92 263.75 92 267.65 92 267.65 68 Z"/>
</g>

<g id="Layer2_10_FILL">
<path fill="#727157" stroke="none" d="
M 263.75 94.5
L 254.65 94.5 254.65 101.1 263.75 101.1 263.75 94.5
M 263.75 65.5
L 263.75 58.9 254.65 58.9 254.65 65.5 263.75 65.5 Z"/>

<path fill="#696853" stroke="none" d="
M 254.65 92
L 254.65 94.5 263.75 94.5 263.75 92 254.65 92
M 263.75 68
L 263.75 65.5 254.65 65.5 254.65 68 263.75 68 Z"/>

<path fill="#7E785C" stroke="none" d="
M 267.65 68
L 263.75 68 254.65 68 250.4 68 250.4 92 254.65 92 263.75 92 267.65 92 267.65 68 Z"/>
</g>

<g id="Layer2_11_FILL">
<path fill="#727157" stroke="none" d="
M 263.75 94.5
L 254.65 94.5 254.65 101.1 263.75 101.1 263.75 94.5
M 263.75 65.5
L 263.75 58.9 254.65 58.9 254.65 65.5 263.75 65.5 Z"/>

<path fill="#696853" stroke="none" d="
M 254.65 92
L 254.65 94.5 263.75 94.5 263.75 92 254.65 92
M 263.75 68
L 263.75 65.5 254.65 65.5 254.65 68 263.75 68 Z"/>

<path fill="#7E785C" stroke="none" d="
M 267.65 68
L 263.75 68 254.65 68 250.4 68 250.4 92 254.65 92 263.75 92 267.65 92 267.65 68 Z"/>
</g>

<g id="Layer2_12_FILL">
<path fill="#727157" stroke="none" d="
M 263.75 94.5
L 254.65 94.5 254.65 101.1 263.75 101.1 263.75 94.5
M 263.75 65.5
L 263.75 58.9 254.65 58.9 254.65 65.5 263.75 65.5 Z"/>

<path fill="#696853" stroke="none" d="
M 254.65 92
L 254.65 94.5 263.75 94.5 263.75 92 254.65 92
M 263.75 68
L 263.75 65.5 254.65 65.5 254.65 68 263.75 68 Z"/>

<path fill="#7E785C" stroke="none" d="
M 267.65 68
L 263.75 68 254.65 68 250.4 68 250.4 92 254.65 92 263.75 92 267.65 92 267.65 68 Z"/>
</g>
</defs>

<g transform="matrix( 1, 0, 0, 1, 0,0) ">
<use xlink:href="#Layer2_0_FILL"/>
</g>

<g transform="matrix( 1, 0, 0, 1, 0,0) ">
<use xlink:href="#Layer2_1_FILL"/>
</g>

<g transform="matrix( 1, 0, 0, 1, 0,0) ">
<use xlink:href="#Layer2_2_FILL"/>
</g>

<g transform="matrix( 1, 0, 0, 1, 0,0) ">
<use xlink:href="#Layer2_3_FILL"/>
</g>

<g transform="matrix( 1, 0, 0, 1, 0,0) ">
<use xlink:href="#Layer2_4_FILL"/>
</g>

<g transform="matrix( 1, 0, 0, 1, 0,0) ">
<use xlink:href="#Layer2_5_FILL"/>
</g>

<g transform="matrix( 1, 0, 0, 1, 0,0) ">
<use xlink:href="#Layer2_6_FILL"/>
</g>

<g transform="matrix( 1, 0, 0, 1, 0,0) ">
<use xlink:href="#Layer2_7_FILL"/>
</g>

<g transform="matrix( 1, 0, 0, 1, 160,0) ">
<use xlink:href="#Layer2_8_FILL"/>
</g>

<g transform="matrix( 1, 0, 0, 1, 157.6,0) ">
<use xlink:href="#Layer2_9_FILL"/>
</g>

<g transform="matrix( 1, 0, 0, 1, 317.6,0) ">
<use xlink:href="#Layer2_10_FILL"/>
</g>

<g transform="matrix( 1, 0, 0, 1, 477.6,0) ">
<use xlink:href="#Layer2_11_FILL"/>
</g>

<g transform="matrix( 1, 0, 0, 1, 637.6,0) ">
<use xlink:href="#Layer2_12_FILL"/>
</g>
</svg>
