
<svg xmlns="http://www.w3.org/2000/svg" version="1.1" xmlns:xlink="http://www.w3.org/1999/xlink" preserveAspectRatio="none" x="0px" y="0px" width="960px" height="160px" viewBox="0 0 960 160">
<defs>
<g id="Layer2_0_FILL">
<path fill="#DB7D34" stroke="none" d="
M 66.8 79.75
L 61.65 79.75 60.3 81.3 62.85 81.3 64 81.8 62.75 82.2 60.3 82.2 61.65 83.6 66.9 83.6 65.4 81.8 66.8 79.75 Z"/>

<path fill="#776553" stroke="none" d="
M 38.5 82.2
L 39.9 82.2 60.3 82.2 62.75 82.2 64 81.8 62.85 81.3 60.3 81.3 39.9 81.3 38.5 81.3 37.65 81.7 38.5 82.2 Z"/>

<path fill="#C6C6C6" stroke="none" d="
M 39.9 81.3
L 39.2 78.8 33.05 81.65 39.05 84.6 39.9 82.2 38.5 82.2 37.65 81.7 38.5 81.3 39.9 81.3 Z"/>
</g>

<g id="Layer2_1_FILL">
<path fill="#D9BFA1" stroke="none" d="
M 56.4 75.25
L 49.95 81.7 56.35 88.1 62.8 81.65 56.4 75.25 Z"/>
</g>

<g id="Layer2_2_FILL">
<path fill="#D9BFA1" stroke="none" d="
M 73.35 62.3
L 79.8 68.75 86.25 62.3 79.8 55.85 73.35 62.3 Z"/>
</g>

<g id="Layer2_3_FILL">
<path fill="#776553" stroke="none" d="
M 46.75 87.25
L 50.7 87.25 51.05 76.25 46.9 76.25 46.75 87.25 Z"/>

<path fill="#877B61" stroke="none" d="
M 50.7 87.25
L 46.75 87.25
Q 47.2 89.45 47.75 91.6 49.3 97.35 52.45 102.35 57.85 110.85 66.95 115.1
L 68.1 113.1
Q 61.7 110.9 57.7 105.4 51.8 97.25 50.7 87.25
M 67 50.15
Q 63.75 51.95 60.95 54 57.65 56.35 55.25 59.45 49.25 67 46.9 76.25
L 51.05 76.25
Q 52.3 70 55.15 64.25 59.45 55.6 68.1 52.1
L 67 50.15 Z"/>
</g>

<g id="Layer2_4_FILL">
<path fill="#D9BFA1" stroke="none" d="
M 216.4 75.25
L 209.95 81.7 216.35 88.1 222.8 81.65 216.4 75.25 Z"/>
</g>

<g id="Layer2_5_FILL">
<path fill="#D9BFA1" stroke="none" d="
M 250.25 57.3
L 243.8 50.85 237.35 57.3 243.8 63.75 250.25 57.3 Z"/>
</g>

<g id="Layer2_6_FILL">
<path fill="#877B61" stroke="none" d="
M 210.7 87.25
L 206.8 87.25
Q 207.2 89.45 207.75 91.6 209.3 97.35 212.45 102.35 217.85 110.85 226.95 115.1
L 228.1 113.1
Q 221.7 110.9 217.7 105.4 211.8 97.25 210.7 87.25
M 228.1 52.1
L 227 50.15
Q 223.75 51.95 220.95 54 217.65 56.35 215.25 59.45 209.25 67 206.9 76.25
L 211.05 76.25
Q 212.3 70 215.15 64.25 219.45 55.6 228.1 52.1 Z"/>

<path fill="#776553" stroke="none" d="
M 211.05 76.25
L 206.9 76.25 206.8 87.25 210.7 87.25 211.05 76.25 Z"/>
</g>

<g id="Layer2_7_FILL">
<path fill="#D9BFA1" stroke="none" d="
M 376.4 75.25
L 369.95 81.7 376.35 88.1 382.8 81.65 376.4 75.25 Z"/>
</g>

<g id="Layer2_8_FILL">
<path fill="#D9BFA1" stroke="none" d="
M 398.35 57.3
L 404.8 63.75 411.25 57.3 404.8 50.85 398.35 57.3 Z"/>
</g>

<g id="Layer2_9_FILL">
<path fill="#776553" stroke="none" d="
M 366.8 87.25
L 370.7 87.25 371.05 76.25 366.9 76.25 366.8 87.25 Z"/>

<path fill="#877B61" stroke="none" d="
M 370.7 87.25
L 366.8 87.25
Q 367.2 89.45 367.75 91.6 369.3 97.35 372.45 102.35 377.85 110.85 386.95 115.1
L 388.1 113.1
Q 381.7 110.9 377.7 105.4 371.8 97.25 370.7 87.25
M 388.1 52.1
L 387 50.15
Q 383.75 51.95 380.95 54 377.65 56.35 375.25 59.45 369.25 67 366.9 76.25
L 371.05 76.25
Q 372.3 70 375.15 64.25 379.45 55.6 388.1 52.1 Z"/>
</g>

<g id="Layer2_10_FILL">
<path fill="#D9BFA1" stroke="none" d="
M 536.4 75.25
L 529.95 81.7 536.35 88.1 542.8 81.65 536.4 75.25 Z"/>
</g>

<g id="Layer2_11_FILL">
<path fill="#D9BFA1" stroke="none" d="
M 559.35 57.3
L 565.8 63.75 572.25 57.3 565.8 50.85 559.35 57.3 Z"/>
</g>

<g id="Layer2_12_FILL">
<path fill="#776553" stroke="none" d="
M 526.8 87.25
L 530.7 87.25 531.05 76.25 526.9 76.25 526.8 87.25 Z"/>

<path fill="#877B61" stroke="none" d="
M 530.7 87.25
L 526.8 87.25
Q 527.2 89.45 527.75 91.6 529.3 97.35 532.45 102.35 537.85 110.85 546.95 115.1
L 548.1 113.1
Q 541.7 110.9 537.7 105.4 531.8 97.25 530.7 87.25
M 548.1 52.1
L 547 50.15
Q 543.75 51.95 540.95 54 537.65 56.35 535.25 59.45 529.25 67 526.9 76.25
L 531.05 76.25
Q 532.3 70 535.15 64.25 539.45 55.6 548.1 52.1 Z"/>
</g>

<g id="Layer2_13_FILL">
<path fill="#D9BFA1" stroke="none" d="
M 696.4 75.25
L 689.95 81.7 696.35 88.1 702.8 81.65 696.4 75.25 Z"/>
</g>

<g id="Layer2_14_FILL">
<path fill="#D9BFA1" stroke="none" d="
M 720.35 57.3
L 726.8 63.75 733.25 57.3 726.8 50.85 720.35 57.3 Z"/>
</g>

<g id="Layer2_15_FILL">
<path fill="#877B61" stroke="none" d="
M 700.95 54
Q 697.65 56.35 695.25 59.45 689.25 67 686.9 76.25
L 691.05 76.25
Q 692.3 70 695.15 64.25 699.45 55.6 708.1 52.1
L 707 50.15
Q 703.75 51.95 700.95 54
M 686.8 87.25
Q 687.2 89.45 687.75 91.6 689.3 97.35 692.45 102.35 697.85 110.85 706.95 115.1
L 708.1 113.1
Q 701.7 110.9 697.7 105.4 691.8 97.25 690.7 87.25
L 686.8 87.25 Z"/>

<path fill="#776553" stroke="none" d="
M 686.9 76.25
L 686.8 87.25 690.7 87.25 691.05 76.25 686.9 76.25 Z"/>
</g>

<g id="Layer2_16_FILL">
<path fill="#D9BFA1" stroke="none" d="
M 862.8 81.65
L 856.4 75.25 849.95 81.7 856.35 88.1 862.8 81.65 Z"/>
</g>

<g id="Layer2_17_FILL">
<path fill="#D9BFA1" stroke="none" d="
M 881.35 57.3
L 887.8 63.75 894.25 57.3 887.8 50.85 881.35 57.3 Z"/>
</g>

<g id="Layer2_18_FILL">
<path fill="#877B61" stroke="none" d="
M 860.95 54
Q 857.65 56.35 855.25 59.45 849.25 67 846.9 76.25
L 851.05 76.25
Q 852.3 70 855.15 64.25 859.45 55.6 868.1 52.1
L 867 50.15
Q 863.75 51.95 860.95 54
M 846.8 87.25
Q 847.2 89.45 847.75 91.6 849.3 97.35 852.45 102.35 857.85 110.85 866.95 115.1
L 868.1 113.1
Q 861.7 110.9 857.7 105.4 851.8 97.25 850.7 87.25
L 846.8 87.25 Z"/>

<path fill="#776553" stroke="none" d="
M 846.9 76.25
L 846.8 87.25 850.7 87.25 851.05 76.25 846.9 76.25 Z"/>
</g>

<path id="Layer2_3_1_STROKES" stroke="#CCCCCC" stroke-width="1" stroke-linejoin="round" stroke-linecap="round" fill="none" d="
M 68.1 52.1
L 92.8 75.8 68.1 113.1"/>

<path id="Layer2_6_1_STROKES" stroke="#CCCCCC" stroke-width="1" stroke-linejoin="round" stroke-linecap="round" fill="none" d="
M 228.1 52.1
L 232.05 77.3 228.1 113.1"/>

<path id="Layer2_9_1_STROKES" stroke="#CCCCCC" stroke-width="1" stroke-linejoin="round" stroke-linecap="round" fill="none" d="
M 388.1 52.1
L 380.8 84.8 388.1 113.1"/>

<path id="Layer2_12_1_STROKES" stroke="#CCCCCC" stroke-width="1" stroke-linejoin="round" stroke-linecap="round" fill="none" d="
M 548.1 52.1
L 549.8 80.8 548.1 113.1"/>

<path id="Layer2_15_1_STROKES" stroke="#CCCCCC" stroke-width="1" stroke-linejoin="round" stroke-linecap="round" fill="none" d="
M 708.1 52.1
L 708.1 113.1"/>

<path id="Layer2_18_1_STROKES" stroke="#CCCCCC" stroke-width="1" stroke-linejoin="round" stroke-linecap="round" fill="none" d="
M 868.1 52.1
L 868.1 113.1"/>
</defs>

<g transform="matrix( 1, 0, 0, 1, 6.5,0) ">
<use xlink:href="#Layer2_0_FILL"/>
</g>

<g transform="matrix( 1, 0, 0, 1, 0,0) ">
<use xlink:href="#Layer2_1_FILL"/>
</g>

<g transform="matrix( 1, 0, 0, 1, 0,0) ">
<use xlink:href="#Layer2_2_FILL"/>
</g>

<g transform="matrix( 1, 0, 0, 1, 0,0) ">
<use xlink:href="#Layer2_3_FILL"/>

<use xlink:href="#Layer2_3_1_STROKES"/>
</g>

<g transform="matrix( 1, 0, 0, 1, 0,0) ">
<use xlink:href="#Layer2_4_FILL"/>
</g>

<g transform="matrix( 1, 0, 0, 1, 0,0) ">
<use xlink:href="#Layer2_5_FILL"/>
</g>

<g transform="matrix( 1, 0, 0, 1, 0,0) ">
<use xlink:href="#Layer2_6_FILL"/>

<use xlink:href="#Layer2_6_1_STROKES"/>
</g>

<g transform="matrix( 1, 0, 0, 1, 0,0) ">
<use xlink:href="#Layer2_7_FILL"/>
</g>

<g transform="matrix( 1, 0, 0, 1, 0,0) ">
<use xlink:href="#Layer2_8_FILL"/>
</g>

<g transform="matrix( 1, 0, 0, 1, 0,0) ">
<use xlink:href="#Layer2_9_FILL"/>

<use xlink:href="#Layer2_9_1_STROKES"/>
</g>

<g transform="matrix( 1, 0, 0, 1, 0,0) ">
<use xlink:href="#Layer2_10_FILL"/>
</g>

<g transform="matrix( 1, 0, 0, 1, 0,0) ">
<use xlink:href="#Layer2_11_FILL"/>
</g>

<g transform="matrix( 1, 0, 0, 1, 0,0) ">
<use xlink:href="#Layer2_12_FILL"/>

<use xlink:href="#Layer2_12_1_STROKES"/>
</g>

<g transform="matrix( 1, 0, 0, 1, 0,0) ">
<use xlink:href="#Layer2_13_FILL"/>
</g>

<g transform="matrix( 1, 0, 0, 1, 0,0) ">
<use xlink:href="#Layer2_14_FILL"/>
</g>

<g transform="matrix( 1, 0, 0, 1, 0,0) ">
<use xlink:href="#Layer2_15_FILL"/>

<use xlink:href="#Layer2_15_1_STROKES"/>
</g>

<g transform="matrix( 1, 0, 0, 1, 0,0) ">
<use xlink:href="#Layer2_16_FILL"/>
</g>

<g transform="matrix( 1, 0, 0, 1, 0,0) ">
<use xlink:href="#Layer2_17_FILL"/>
</g>

<g transform="matrix( 1, 0, 0, 1, 0,0) ">
<use xlink:href="#Layer2_18_FILL"/>

<use xlink:href="#Layer2_18_1_STROKES"/>
</g>
</svg>
