
<svg xmlns="http://www.w3.org/2000/svg" version="1.1" xmlns:xlink="http://www.w3.org/1999/xlink" preserveAspectRatio="none" x="0px" y="0px" width="960px" height="160px" viewBox="0 0 960 160">
<defs>
<g id="Layer2_0_FILL">
<path fill="#D9BFA1" stroke="none" d="
M 49.95 81.7
L 56.35 88.1 62.8 81.65 56.4 75.25 49.95 81.7 Z"/>
</g>

<g id="Layer2_1_FILL">
<path fill="#D9BFA1" stroke="none" d="
M 88.55 49.85
L 82.1 56.3 88.55 62.75 95 56.3 88.55 49.85 Z"/>
</g>

<g id="Layer2_2_FILL">
<path fill="#776553" stroke="none" d="
M 51.05 76.25
L 46.9 76.25 46.75 87.25 50.7 87.25 51.05 76.25 Z"/>

<path fill="#877B61" stroke="none" d="
M 68.1 52.1
L 67 50.15
Q 63.75 51.95 60.95 54 57.65 56.35 55.25 59.45 49.25 67 46.9 76.25
L 51.05 76.25
Q 52.3 70 55.15 64.25 59.45 55.6 68.1 52.1
M 46.75 87.25
Q 47.2 89.45 47.75 91.6 49.3 97.35 52.45 102.35 57.85 110.85 66.95 115.1
L 68.1 113.1
Q 61.7 110.9 57.7 105.4 51.8 97.25 50.7 87.25
L 46.75 87.25 Z"/>
</g>

<g id="Layer2_3_FILL">
<path fill="#D9BFA1" stroke="none" d="
M 56.4 75.25
L 49.95 81.7 56.35 88.1 62.8 81.65 56.4 75.25 Z"/>
</g>

<g id="Layer2_4_FILL">
<path fill="#D9BFA1" stroke="none" d="
M 73.35 62.3
L 79.8 68.75 86.25 62.3 79.8 55.85 73.35 62.3 Z"/>
</g>

<g id="Layer2_5_FILL">
<path fill="#776553" stroke="none" d="
M 206.8 87.25
L 210.7 87.25 211.05 76.25 206.9 76.25 206.8 87.25 Z"/>

<path fill="#877B61" stroke="none" d="
M 206.8 87.25
Q 207.2 89.45 207.75 91.6 209.3 97.35 212.45 102.35 217.85 110.85 226.95 115.1
L 228.1 113.1
Q 221.7 110.9 217.7 105.4 211.8 97.25 210.7 87.25
L 206.8 87.25
M 228.1 52.1
L 227 50.15
Q 223.75 51.95 220.95 54 217.65 56.35 215.25 59.45 209.25 67 206.9 76.25
L 211.05 76.25
Q 212.3 70 215.15 64.25 219.45 55.6 228.1 52.1 Z"/>
</g>

<g id="Layer2_6_FILL">
<path fill="#D9BFA1" stroke="none" d="
M 56.4 75.25
L 49.95 81.7 56.35 88.1 62.8 81.65 56.4 75.25 Z"/>
</g>

<g id="Layer2_7_FILL">
<path fill="#D9BFA1" stroke="none" d="
M 73.35 62.3
L 79.8 68.75 86.25 62.3 79.8 55.85 73.35 62.3 Z"/>
</g>

<g id="Layer2_8_FILL">
<path fill="#877B61" stroke="none" d="
M 366.8 87.25
Q 367.2 89.45 367.75 91.6 369.3 97.35 372.45 102.35 377.85 110.85 386.95 115.1
L 388.1 113.1
Q 381.7 110.9 377.7 105.4 371.8 97.25 370.7 87.25
L 366.8 87.25
M 388.1 52.1
L 387 50.15
Q 383.75 51.95 380.95 54 377.65 56.35 375.25 59.45 369.25 67 366.9 76.25
L 371.05 76.25
Q 372.3 70 375.15 64.25 379.45 55.6 388.1 52.1 Z"/>

<path fill="#776553" stroke="none" d="
M 371.05 76.25
L 366.9 76.25 366.8 87.25 370.7 87.25 371.05 76.25 Z"/>
</g>

<g id="Layer2_9_FILL">
<path fill="#D9BFA1" stroke="none" d="
M 56.4 75.25
L 49.95 81.7 56.35 88.1 62.8 81.65 56.4 75.25 Z"/>
</g>

<g id="Layer2_10_FILL">
<path fill="#D9BFA1" stroke="none" d="
M 73.35 62.3
L 79.8 68.75 86.25 62.3 79.8 55.85 73.35 62.3 Z"/>
</g>

<g id="Layer2_11_FILL">
<path fill="#877B61" stroke="none" d="
M 526.8 87.25
Q 527.2 89.45 527.75 91.6 529.3 97.35 532.45 102.35 537.85 110.85 546.95 115.1
L 548.1 113.1
Q 541.7 110.9 537.7 105.4 531.8 97.25 530.7 87.25
L 526.8 87.25
M 548.1 52.1
L 547 50.15
Q 543.75 51.95 540.95 54 537.65 56.35 535.25 59.45 529.25 67 526.9 76.25
L 531.05 76.25
Q 532.3 70 535.15 64.25 539.45 55.6 548.1 52.1 Z"/>

<path fill="#776553" stroke="none" d="
M 531.05 76.25
L 526.9 76.25 526.8 87.25 530.7 87.25 531.05 76.25 Z"/>
</g>

<g id="Layer2_12_FILL">
<path fill="#D9BFA1" stroke="none" d="
M 56.4 75.25
L 49.95 81.7 56.35 88.1 62.8 81.65 56.4 75.25 Z"/>
</g>

<g id="Layer2_13_FILL">
<path fill="#D9BFA1" stroke="none" d="
M 73.35 62.3
L 79.8 68.75 86.25 62.3 79.8 55.85 73.35 62.3 Z"/>
</g>

<g id="Layer2_14_FILL">
<path fill="#877B61" stroke="none" d="
M 700.95 54
Q 697.65 56.35 695.25 59.45 689.25 67 686.9 76.25
L 691.05 76.25
Q 692.3 70 695.15 64.25 699.45 55.6 708.1 52.1
L 707 50.15
Q 703.75 51.95 700.95 54
M 686.8 87.25
Q 687.2 89.45 687.75 91.6 689.3 97.35 692.45 102.35 697.85 110.85 706.95 115.1
L 708.1 113.1
Q 701.7 110.9 697.7 105.4 691.8 97.25 690.7 87.25
L 686.8 87.25 Z"/>

<path fill="#776553" stroke="none" d="
M 686.9 76.25
L 686.8 87.25 690.7 87.25 691.05 76.25 686.9 76.25 Z"/>
</g>

<g id="Layer2_15_FILL">
<path fill="#D9BFA1" stroke="none" d="
M 56.4 75.25
L 49.95 81.7 56.35 88.1 62.8 81.65 56.4 75.25 Z"/>
</g>

<g id="Layer2_16_FILL">
<path fill="#D9BFA1" stroke="none" d="
M 73.35 62.3
L 79.8 68.75 86.25 62.3 79.8 55.85 73.35 62.3 Z"/>
</g>

<g id="Layer2_17_FILL">
<path fill="#877B61" stroke="none" d="
M 860.95 54
Q 857.65 56.35 855.25 59.45 849.25 67 846.9 76.25
L 851.05 76.25
Q 852.3 70 855.15 64.25 859.45 55.6 868.1 52.1
L 867 50.15
Q 863.75 51.95 860.95 54
M 846.8 87.25
Q 847.2 89.45 847.75 91.6 849.3 97.35 852.45 102.35 857.85 110.85 866.95 115.1
L 868.1 113.1
Q 861.7 110.9 857.7 105.4 851.8 97.25 850.7 87.25
L 846.8 87.25 Z"/>

<path fill="#776553" stroke="none" d="
M 846.9 76.25
L 846.8 87.25 850.7 87.25 851.05 76.25 846.9 76.25 Z"/>
</g>

<path id="Layer2_2_1_STROKES" stroke="#CCCCCC" stroke-width="1" stroke-linejoin="round" stroke-linecap="round" fill="none" d="
M 68.1 52.1
L 92.8 75.8 68.1 113.1"/>

<path id="Layer2_5_1_STROKES" stroke="#CCCCCC" stroke-width="1" stroke-linejoin="round" stroke-linecap="round" fill="none" d="
M 228.1 52.1
L 232.05 77.3 228.1 113.1"/>

<path id="Layer2_8_1_STROKES" stroke="#CCCCCC" stroke-width="1" stroke-linejoin="round" stroke-linecap="round" fill="none" d="
M 388.1 52.1
L 380.8 84.8 388.1 113.1"/>

<path id="Layer2_11_1_STROKES" stroke="#CCCCCC" stroke-width="1" stroke-linejoin="round" stroke-linecap="round" fill="none" d="
M 548.1 52.1
L 549.8 80.8 548.1 113.1"/>

<path id="Layer2_14_1_STROKES" stroke="#CCCCCC" stroke-width="1" stroke-linejoin="round" stroke-linecap="round" fill="none" d="
M 708.1 52.1
L 708.1 113.1"/>

<path id="Layer2_17_1_STROKES" stroke="#CCCCCC" stroke-width="1" stroke-linejoin="round" stroke-linecap="round" fill="none" d="
M 868.1 52.1
L 868.1 113.1"/>
</defs>

<g transform="matrix( 1, 0, 0, 1, 0,0) ">
<use xlink:href="#Layer2_0_FILL"/>
</g>

<g transform="matrix( 1, 0, 0, 1, -8.75,6) ">
<use xlink:href="#Layer2_1_FILL"/>
</g>

<g transform="matrix( 1, 0, 0, 1, 0,0) ">
<use xlink:href="#Layer2_2_FILL"/>

<use xlink:href="#Layer2_2_1_STROKES"/>
</g>

<g transform="matrix( 1, 0, 0, 1, 160,0) ">
<use xlink:href="#Layer2_3_FILL"/>
</g>

<g transform="matrix( 1, 0, 0, 1, 164,-5) ">
<use xlink:href="#Layer2_4_FILL"/>
</g>

<g transform="matrix( 1, 0, 0, 1, 0,0) ">
<use xlink:href="#Layer2_5_FILL"/>

<use xlink:href="#Layer2_5_1_STROKES"/>
</g>

<g transform="matrix( 1, 0, 0, 1, 320,0) ">
<use xlink:href="#Layer2_6_FILL"/>
</g>

<g transform="matrix( 1, 0, 0, 1, 325,-5) ">
<use xlink:href="#Layer2_7_FILL"/>
</g>

<g transform="matrix( 1, 0, 0, 1, 0,0) ">
<use xlink:href="#Layer2_8_FILL"/>

<use xlink:href="#Layer2_8_1_STROKES"/>
</g>

<g transform="matrix( 1, 0, 0, 1, 480,0) ">
<use xlink:href="#Layer2_9_FILL"/>
</g>

<g transform="matrix( 1, 0, 0, 1, 486,-5) ">
<use xlink:href="#Layer2_10_FILL"/>
</g>

<g transform="matrix( 1, 0, 0, 1, 0,0) ">
<use xlink:href="#Layer2_11_FILL"/>

<use xlink:href="#Layer2_11_1_STROKES"/>
</g>

<g transform="matrix( 1, 0, 0, 1, 640,0) ">
<use xlink:href="#Layer2_12_FILL"/>
</g>

<g transform="matrix( 1, 0, 0, 1, 647,-5) ">
<use xlink:href="#Layer2_13_FILL"/>
</g>

<g transform="matrix( 1, 0, 0, 1, 0,0) ">
<use xlink:href="#Layer2_14_FILL"/>

<use xlink:href="#Layer2_14_1_STROKES"/>
</g>

<g transform="matrix( 1, 0, 0, 1, 800,0) ">
<use xlink:href="#Layer2_15_FILL"/>
</g>

<g transform="matrix( 1, 0, 0, 1, 808,-5) ">
<use xlink:href="#Layer2_16_FILL"/>
</g>

<g transform="matrix( 1, 0, 0, 1, 0,0) ">
<use xlink:href="#Layer2_17_FILL"/>

<use xlink:href="#Layer2_17_1_STROKES"/>
</g>
</svg>
