
<svg xmlns="http://www.w3.org/2000/svg" version="1.1" xmlns:xlink="http://www.w3.org/1999/xlink" preserveAspectRatio="none" x="0px" y="0px" width="960px" height="160px" viewBox="0 0 960 160">
<defs>
<g id="Layer2_0_FILL">
<path fill="#D9BFA1" stroke="none" d="
M 79.8 55.85
L 73.35 62.3 79.8 68.75 86.25 62.3 79.8 55.85 Z"/>
</g>

<g id="Layer2_1_FILL">
<path fill="#5C6370" stroke="none" d="
M 85.25 74.5
L 85.25 86.75 74.75 98 93.5 104 105.75 92.25 105.75 66.5 94 55.75 74.75 64 85.25 74.5 Z"/>
</g>

<g id="Layer2_2_FILL">
<path fill="#D9BFA1" stroke="none" d="
M 70.5 59
L 78.45 63.55 82.95 55.7 75.1 51.1 70.5 59 Z"/>
</g>

<g id="Layer2_3_FILL">
<path fill="#5C6370" stroke="none" d="
M 105.75 66.5
L 94 55.75 74.75 64 85.25 74.5 85.25 86.75 74.75 98 93.5 104 105.75 92.25 105.75 66.5 Z"/>
</g>

<g id="Layer2_4_FILL">
<path fill="#D9BFA1" stroke="none" d="
M 242.95 55.7
L 235.1 51.1 230.5 59 238.45 63.55 242.95 55.7 Z"/>
</g>

<g id="Layer2_5_FILL">
<path fill="#5C6370" stroke="none" d="
M 265.75 66.5
L 254 55.75 234.75 64 245.25 74.5 245.25 86.75 234.75 98 253.5 104 265.75 92.25 265.75 66.5 Z"/>
</g>

<g id="Layer2_6_FILL">
<path fill="#D9BFA1" stroke="none" d="
M 402.2 55.7
L 394.35 51.1 389.75 59 397.7 63.55 402.2 55.7 Z"/>
</g>

<g id="Layer2_7_FILL">
<path fill="#5C6370" stroke="none" d="
M 425 66.5
L 413.25 55.75 394 64 404.5 74.5 404.5 86.75 394 98 412.75 104 425 92.25 425 66.5 Z"/>
</g>

<g id="Layer2_8_FILL">
<path fill="#D9BFA1" stroke="none" d="
M 544.55 54.6
L 535.5 54 534.9 63.15 544.05 63.65 544.55 54.6 Z"/>
</g>

<g id="Layer2_9_FILL">
<path fill="#5C6370" stroke="none" d="
M 584.65 97.85
L 592.9 83 585.4 58.35 571 51.5 555 65 568.15 72 571.7 83.75 564.95 97.55 584.65 97.85 Z"/>
</g>

<g id="Layer2_10_FILL">
<path fill="#D9BFA1" stroke="none" d="
M 704.55 54.6
L 695.5 54 694.9 63.15 704.05 63.65 704.55 54.6 Z"/>
</g>

<g id="Layer2_11_FILL">
<path fill="#5C6370" stroke="none" d="
M 745.4 58.35
L 731 51.5 715 65 728.15 72 731.7 83.75 724.95 97.55 744.65 97.85 752.9 83 745.4 58.35 Z"/>
</g>

<g id="Layer2_12_FILL">
<path fill="#D9BFA1" stroke="none" d="
M 49.95 81.7
L 56.35 88.1 62.8 81.65 56.4 75.25 49.95 81.7 Z"/>
</g>

<g id="Layer2_13_FILL">
<path fill="#D9BFA1" stroke="none" d="
M 66.2 106.6
L 72.75 100.25 66.45 93.75 59.9 100.1 66.2 106.6 Z"/>
</g>

<g id="Layer2_14_FILL">
<path fill="#D9BFA1" stroke="none" d="
M 226.2 106.6
L 232.75 100.25 226.45 93.75 219.9 100.1 226.2 106.6 Z"/>
</g>

<g id="Layer2_15_FILL">
<path fill="#D9BFA1" stroke="none" d="
M 226.2 106.6
L 232.75 100.25 226.45 93.75 219.9 100.1 226.2 106.6 Z"/>
</g>

<g id="Layer2_16_FILL">
<path fill="#D9BFA1" stroke="none" d="
M 226.2 106.6
L 232.75 100.25 226.45 93.75 219.9 100.1 226.2 106.6 Z"/>
</g>

<g id="Layer2_17_FILL">
<path fill="#D9BFA1" stroke="none" d="
M 226.2 106.6
L 232.75 100.25 226.45 93.75 219.9 100.1 226.2 106.6 Z"/>
</g>
</defs>

<g transform="matrix( 0.9659271240234375, -0.2588043212890625, 0.2588043212890625, 0.9659271240234375, -16.45,17.8) ">
<use xlink:href="#Layer2_0_FILL"/>
</g>

<g transform="matrix( 1, 0, 0, 1, 0,0) ">
<use xlink:href="#Layer2_1_FILL"/>
</g>

<g transform="matrix( 0.9659271240234375, -0.2588043212890625, 0.2588043212890625, 0.9659271240234375, 141.3,23.2) ">
<use xlink:href="#Layer2_2_FILL"/>
</g>

<g transform="matrix( 0.99725341796875, -0.0740509033203125, 0.0740509033203125, 0.99725341796875, 155.5,5.95) ">
<use xlink:href="#Layer2_3_FILL"/>
</g>

<g transform="matrix( 0.965057373046875, -0.26202392578125, 0.26202392578125, 0.965057373046875, 136.35,65.15) ">
<use xlink:href="#Layer2_4_FILL"/>
</g>

<g transform="matrix( 0.9808349609375, -0.19488525390625, 0.19488525390625, 0.9808349609375, 151.45,47.65) ">
<use xlink:href="#Layer2_5_FILL"/>
</g>

<g transform="matrix( 0.895355224609375, -0.445343017578125, 0.445343017578125, 0.895355224609375, 159.65,183.85) ">
<use xlink:href="#Layer2_6_FILL"/>
</g>

<g transform="matrix( 0.9564971923828125, -0.2917327880859375, 0.2917327880859375, 0.9564971923828125, 159.5,118.75) ">
<use xlink:href="#Layer2_7_FILL"/>
</g>

<g transform="matrix( 1, 0, 0, 1, 160,0) ">
<use xlink:href="#Layer2_8_FILL"/>
</g>

<g transform="matrix( 0.9898834228515625, 0.141845703125, -0.141845703125, 0.9898834228515625, 174.65,-78.6) ">
<use xlink:href="#Layer2_9_FILL"/>
</g>

<g transform="matrix( 1, 0, 0, 1, 160,0) ">
<use xlink:href="#Layer2_10_FILL"/>
</g>

<g transform="matrix( 0.9497222900390625, 0.313079833984375, -0.313079833984375, 0.9497222900390625, 216,-221.7) ">
<use xlink:href="#Layer2_11_FILL"/>
</g>

<g transform="matrix( 0.9998321533203125, 0.0178070068359375, -0.0178070068359375, 0.9998321533203125, 11.4,17.5) ">
<use xlink:href="#Layer2_12_FILL"/>
</g>

<g transform="matrix( 1, 0, 0, 1, 161,0) ">
<use xlink:href="#Layer2_13_FILL"/>
</g>

<g transform="matrix( 1, 0, 0, 1, 162,0) ">
<use xlink:href="#Layer2_14_FILL"/>
</g>

<g transform="matrix( 1, 0, 0, 1, 323,0) ">
<use xlink:href="#Layer2_15_FILL"/>
</g>

<g transform="matrix( 1, 0, 0, 1, 484,0) ">
<use xlink:href="#Layer2_16_FILL"/>
</g>

<g transform="matrix( 1, 0, 0, 1, 642,0) ">
<use xlink:href="#Layer2_17_FILL"/>
</g>
</svg>
