
<svg xmlns="http://www.w3.org/2000/svg" version="1.1" xmlns:xlink="http://www.w3.org/1999/xlink" preserveAspectRatio="none" x="0px" y="0px" width="960px" height="160px" viewBox="0 0 960 160">
<defs>
<g id="Layer2_0_FILL">
<path fill="#D9BFA1" stroke="none" d="
M 70.5 59
L 78.45 63.55 82.95 55.7 75.1 51.1 70.5 59 Z"/>
</g>

<g id="Layer2_1_FILL">
<path fill="#D9BFA1" stroke="none" d="
M 235.8 55.55
L 227.05 53.1 224.65 61.95 233.55 64.3 235.8 55.55 Z"/>
</g>

<g id="Layer2_2_FILL">
<path fill="#D9BFA1" stroke="none" d="
M 385.4 55.25
L 376.65 52.85 374.25 61.7 383.1 64 385.4 55.25 Z"/>
</g>

<g id="Layer2_3_FILL">
<path fill="#D9BFA1" stroke="none" d="
M 544.55 54.6
L 535.5 54 534.9 63.15 544.05 63.65 544.55 54.6 Z"/>
</g>

<g id="Layer2_4_FILL">
<path fill="#D9BFA1" stroke="none" d="
M 704.55 54.6
L 695.5 54 694.9 63.15 704.05 63.65 704.55 54.6 Z"/>
</g>

<g id="Layer2_5_FILL">
<path fill="#D9BFA1" stroke="none" d="
M 864.55 54.6
L 855.5 54 854.9 63.15 864.05 63.65 864.55 54.6 Z"/>
</g>

<g id="Layer2_6_FILL">
<path fill="#D9BFA1" stroke="none" d="
M 66.2 106.6
L 72.75 100.25 66.45 93.75 59.9 100.1 66.2 106.6 Z"/>
</g>

<g id="Layer2_7_FILL">
<path fill="#D9BFA1" stroke="none" d="
M 227.2 106.6
L 233.75 100.25 227.45 93.75 220.9 100.1 227.2 106.6 Z"/>
</g>

<g id="Layer2_8_FILL">
<path fill="#D9BFA1" stroke="none" d="
M 388.2 106.6
L 394.75 100.25 388.45 93.75 381.9 100.1 388.2 106.6 Z"/>
</g>

<g id="Layer2_9_FILL">
<path fill="#D9BFA1" stroke="none" d="
M 549.2 106.6
L 555.75 100.25 549.45 93.75 542.9 100.1 549.2 106.6 Z"/>
</g>

<g id="Layer2_10_FILL">
<path fill="#D9BFA1" stroke="none" d="
M 710.2 106.6
L 716.75 100.25 710.45 93.75 703.9 100.1 710.2 106.6 Z"/>
</g>

<g id="Layer2_11_FILL">
<path fill="#D9BFA1" stroke="none" d="
M 868.2 106.6
L 874.75 100.25 868.45 93.75 861.9 100.1 868.2 106.6 Z"/>
</g>

<g id="Layer2_12_FILL">
<path fill="#5C6370" stroke="none" d="
M 105.5 80.5
L 100.75 58.75 72.5 62 72.5 99 100.75 102.75 105.5 80.5 Z"/>
</g>

<g id="Layer2_13_FILL">
<path fill="#5C6370" stroke="none" d="
M 265.5 80.5
L 260.75 58.75 232.5 62 232.5 99 260.75 102.75 265.5 80.5 Z"/>
</g>

<g id="Layer2_14_FILL">
<path fill="#5C6370" stroke="none" d="
M 425.5 80.5
L 420.75 58.75 392.5 62 392.5 99 420.75 102.75 425.5 80.5 Z"/>
</g>

<g id="Layer2_15_FILL">
<path fill="#5C6370" stroke="none" d="
M 585.5 80.5
L 580.75 58.75 552.5 62 552.5 99 580.75 102.75 585.5 80.5 Z"/>
</g>

<g id="Layer2_16_FILL">
<path fill="#5C6370" stroke="none" d="
M 745.5 80.5
L 740.75 58.75 712.5 62 712.5 99 740.75 102.75 745.5 80.5 Z"/>
</g>

<g id="Layer2_17_FILL">
<path fill="#5C6370" stroke="none" d="
M 905.5 80.5
L 900.75 58.75 872.5 62 872.5 99 900.75 102.75 905.5 80.5 Z"/>
</g>
</defs>

<g transform="matrix( 1, 0, 0, 1, 0,0) ">
<use xlink:href="#Layer2_0_FILL"/>
</g>

<g transform="matrix( 1, 0, 0, 1, 0,0) ">
<use xlink:href="#Layer2_1_FILL"/>
</g>

<g transform="matrix( 1, 0, 0, 1, 0,0) ">
<use xlink:href="#Layer2_2_FILL"/>
</g>

<g transform="matrix( 1, 0, 0, 1, 0,0) ">
<use xlink:href="#Layer2_3_FILL"/>
</g>

<g transform="matrix( 1, 0, 0, 1, 0,0) ">
<use xlink:href="#Layer2_4_FILL"/>
</g>

<g transform="matrix( 1, 0, 0, 1, 0,0) ">
<use xlink:href="#Layer2_5_FILL"/>
</g>

<g transform="matrix( 1, 0, 0, 1, 0,0) ">
<use xlink:href="#Layer2_6_FILL"/>
</g>

<g transform="matrix( 1, 0, 0, 1, 0,0) ">
<use xlink:href="#Layer2_7_FILL"/>
</g>

<g transform="matrix( 1, 0, 0, 1, 0,0) ">
<use xlink:href="#Layer2_8_FILL"/>
</g>

<g transform="matrix( 1, 0, 0, 1, 0,0) ">
<use xlink:href="#Layer2_9_FILL"/>
</g>

<g transform="matrix( 1, 0, 0, 1, 0,0) ">
<use xlink:href="#Layer2_10_FILL"/>
</g>

<g transform="matrix( 1, 0, 0, 1, 0,0) ">
<use xlink:href="#Layer2_11_FILL"/>
</g>

<g transform="matrix( 1.030303955078125, 0, 0, 1, -2.2,0) ">
<use xlink:href="#Layer2_12_FILL"/>
</g>

<g transform="matrix( 1.030303955078125, 0, 0, 1, -7.05,0) ">
<use xlink:href="#Layer2_13_FILL"/>
</g>

<g transform="matrix( 1.030303955078125, 0, 0, 1, -11.9,0) ">
<use xlink:href="#Layer2_14_FILL"/>
</g>

<g transform="matrix( 1.030303955078125, 0, 0, 1, -16.75,0) ">
<use xlink:href="#Layer2_15_FILL"/>
</g>

<g transform="matrix( 1.030303955078125, 0, 0, 1, -21.6,0) ">
<use xlink:href="#Layer2_16_FILL"/>
</g>

<g transform="matrix( 1.030303955078125, 0, 0, 1, -26.45,0) ">
<use xlink:href="#Layer2_17_FILL"/>
</g>
</svg>
