
<svg xmlns="http://www.w3.org/2000/svg" version="1.1" xmlns:xlink="http://www.w3.org/1999/xlink" preserveAspectRatio="none" x="0px" y="0px" width="960px" height="160px" viewBox="0 0 960 160">
<defs>
<g id="Layer2_0_FILL">
<path fill="#9187B4" stroke="none" d="
M 78 68
L 78 61 50 61 50 62.6 51.65 62.6 51.65 63.6 50 63.6 50 65.45 51.65 65.45 51.65 66.45 50 66.45 50 68 78 68
M 69 62.5
L 71 62.55 71 64.5 69 64.3 69 62.5 Z"/>

<path fill="#6F67AA" stroke="none" d="
M 71 62.55
L 69 62.5 69 64.3 71 64.5 71 62.55 Z"/>
</g>

<g id="Layer2_1_FILL">
<path fill="#9187B4" stroke="none" d="
M 50 94.6
L 50 96.45 51.65 96.45 51.65 97.45 50 97.45 50 99 78 99 78 92 50 92 50 93.6 51.65 93.6 51.65 94.6 50 94.6
M 56 97.3
L 56 95.5 58 95.55 58 97.5 56 97.3 Z"/>

<path fill="#6F67AA" stroke="none" d="
M 56 95.5
L 56 97.3 58 97.5 58 95.55 56 95.5 Z"/>
</g>

<g id="Layer2_2_FILL">
<path fill="#9187B4" stroke="none" d="
M 78 68
L 78 61 50 61 50 62.6 51.65 62.6 51.65 63.6 50 63.6 50 65.45 51.65 65.45 51.65 66.45 50 66.45 50 68 78 68
M 69 62.5
L 71 62.55 71 64.5 69 64.3 69 62.5 Z"/>

<path fill="#6F67AA" stroke="none" d="
M 71 62.55
L 69 62.5 69 64.3 71 64.5 71 62.55 Z"/>
</g>

<g id="Layer2_3_FILL">
<path fill="#9187B4" stroke="none" d="
M 50 94.6
L 50 96.45 51.65 96.45 51.65 97.45 50 97.45 50 99 78 99 78 92 50 92 50 93.6 51.65 93.6 51.65 94.6 50 94.6
M 56 95.5
L 58 95.55 58 97.5 56 97.3 56 95.5 Z"/>

<path fill="#6F67AA" stroke="none" d="
M 58 95.55
L 56 95.5 56 97.3 58 97.5 58 95.55 Z"/>
</g>

<g id="Layer2_4_FILL">
<path fill="#9187B4" stroke="none" d="
M 78 68
L 78 61 50 61 50 62.6 51.65 62.6 51.65 63.6 50 63.6 50 65.45 51.65 65.45 51.65 66.45 50 66.45 50 68 78 68
M 69 62.5
L 71 62.55 71 64.5 69 64.3 69 62.5 Z"/>

<path fill="#6F67AA" stroke="none" d="
M 71 62.55
L 69 62.5 69 64.3 71 64.5 71 62.55 Z"/>
</g>

<g id="Layer2_5_FILL">
<path fill="#9187B4" stroke="none" d="
M 50 94.6
L 50 96.45 51.65 96.45 51.65 97.45 50 97.45 50 99 78 99 78 92 50 92 50 93.6 51.65 93.6 51.65 94.6 50 94.6
M 56 95.5
L 58 95.55 58 97.5 56 97.3 56 95.5 Z"/>

<path fill="#6F67AA" stroke="none" d="
M 58 95.55
L 56 95.5 56 97.3 58 97.5 58 95.55 Z"/>
</g>

<g id="Layer2_6_FILL">
<path fill="#9187B4" stroke="none" d="
M 78 68
L 78 61 50 61 50 62.6 51.65 62.6 51.65 63.6 50 63.6 50 65.45 51.65 65.45 51.65 66.45 50 66.45 50 68 78 68
M 69 62.5
L 71 62.55 71 64.5 69 64.3 69 62.5 Z"/>

<path fill="#6F67AA" stroke="none" d="
M 71 62.55
L 69 62.5 69 64.3 71 64.5 71 62.55 Z"/>
</g>

<g id="Layer2_7_FILL">
<path fill="#9187B4" stroke="none" d="
M 50 94.6
L 50 96.45 51.65 96.45 51.65 97.45 50 97.45 50 99 78 99 78 92 50 92 50 93.6 51.65 93.6 51.65 94.6 50 94.6
M 56 95.5
L 58 95.55 58 97.5 56 97.3 56 95.5 Z"/>

<path fill="#6F67AA" stroke="none" d="
M 58 95.55
L 56 95.5 56 97.3 58 97.5 58 95.55 Z"/>
</g>

<g id="Layer2_8_FILL">
<path fill="#9187B4" stroke="none" d="
M 78 68
L 78 61 50 61 50 62.6 51.65 62.6 51.65 63.6 50 63.6 50 65.45 51.65 65.45 51.65 66.45 50 66.45 50 68 78 68
M 69 62.5
L 71 62.55 71 64.5 69 64.3 69 62.5 Z"/>

<path fill="#6F67AA" stroke="none" d="
M 71 62.55
L 69 62.5 69 64.3 71 64.5 71 62.55 Z"/>
</g>

<g id="Layer2_9_FILL">
<path fill="#9187B4" stroke="none" d="
M 50 94.6
L 50 96.45 51.65 96.45 51.65 97.45 50 97.45 50 99 78 99 78 92 50 92 50 93.6 51.65 93.6 51.65 94.6 50 94.6
M 56 95.5
L 58 95.55 58 97.5 56 97.3 56 95.5 Z"/>

<path fill="#6F67AA" stroke="none" d="
M 58 95.55
L 56 95.5 56 97.3 58 97.5 58 95.55 Z"/>
</g>

<g id="Layer2_10_FILL">
<path fill="#9187B4" stroke="none" d="
M 401 68
L 402.8 61.2 375.75 53.95 375.35 55.5 376.95 55.9 376.7 56.9 375.1 56.5 374.6 58.25 376.2 58.65 375.95 59.65 374.35 59.25 373.95 60.75 401 68
M 393.7 60.3
L 395.65 60.9 395.15 62.8 393.25 62.05 393.7 60.3 Z"/>

<path fill="#6F67AA" stroke="none" d="
M 395.65 60.9
L 393.7 60.3 393.25 62.05 395.15 62.8 395.65 60.9 Z"/>
</g>

<g id="Layer2_11_FILL">
<path fill="#9187B4" stroke="none" d="
M 402.8 98.8
L 401 92 373.95 99.25 374.35 100.8 375.95 100.4 376.25 101.4 374.65 101.8 375.1 103.55 376.7 103.15 376.95 104.15 375.35 104.55 375.75 106.05 402.8 98.8
M 381.15 102.85
L 380.65 101.1 382.6 100.65 383.1 102.55 381.15 102.85 Z"/>

<path fill="#6F67AA" stroke="none" d="
M 380.65 101.1
L 381.15 102.85 383.1 102.55 382.6 100.65 380.65 101.1 Z"/>
</g>
</defs>

<g transform="matrix( 1, 0, 0, 1, 0,0) ">
<use xlink:href="#Layer2_0_FILL"/>
</g>

<g transform="matrix( 1, 0, 0, 1, 0,0) ">
<use xlink:href="#Layer2_1_FILL"/>
</g>

<g transform="matrix( 0.97052001953125, 0.24102783203125, -0.24102783203125, 0.97052001953125, 181.7,-16.8) ">
<use xlink:href="#Layer2_2_FILL"/>
</g>

<g transform="matrix( 0.9672393798828125, -0.253814697265625, 0.253814697265625, 0.9672393798828125, 142.2,22.8) ">
<use xlink:href="#Layer2_3_FILL"/>
</g>

<g transform="matrix( 0.9950103759765625, 0.099761962890625, -0.099761962890625, 0.9950103759765625, 330.15,-7.5) ">
<use xlink:href="#Layer2_4_FILL"/>
</g>

<g transform="matrix( 0.99072265625, -0.13592529296875, 0.13592529296875, 0.99072265625, 311.25,11.45) ">
<use xlink:href="#Layer2_5_FILL"/>
</g>

<g transform="matrix( 0.996917724609375, -0.0784454345703125, 0.0784454345703125, 0.996917724609375, 628.9,6.3) ">
<use xlink:href="#Layer2_6_FILL"/>
</g>

<g transform="matrix( 0.99151611328125, 0.129974365234375, -0.129974365234375, 0.99151611328125, 646.6,-9.35) ">
<use xlink:href="#Layer2_7_FILL"/>
</g>

<g transform="matrix( 1, 0, 0, 1, 798,0) ">
<use xlink:href="#Layer2_8_FILL"/>
</g>

<g transform="matrix( 1, 0, 0, 1, 798,0) ">
<use xlink:href="#Layer2_9_FILL"/>
</g>

<g transform="matrix( 0.846160888671875, -0.532928466796875, 0.532928466796875, 0.846160888671875, 178.15,224.15) ">
<use xlink:href="#Layer2_10_FILL"/>
</g>

<g transform="matrix( 0.8914794921875, 0.4530181884765625, -0.4530181884765625, 0.8914794921875, 237.7,-171.65) ">
<use xlink:href="#Layer2_11_FILL"/>
</g>
</svg>
