
<svg xmlns="http://www.w3.org/2000/svg" version="1.1" xmlns:xlink="http://www.w3.org/1999/xlink" preserveAspectRatio="none" x="0px" y="0px" width="120px" height="120px" viewBox="0 0 120 120">
<defs>
<linearGradient id="Gradient_1" gradientUnits="userSpaceOnUse" x1="4.975000000000001" y1="7.75" x2="38.225" y2="7.75" spreadMethod="pad">
<stop  offset="0%" stop-color="#D4CDCD"/>

<stop  offset="100%" stop-color="#BFB7B7"/>
</linearGradient>

<g id="Symbol_2_0_Layer0_0_FILL">
<path fill="#D4CDCD" stroke="none" d="
M 38.25 2.75
L 5 2.75 0 7.75 5 12.75 38.25 2.75 Z"/>

<path fill="url(#Gradient_1)" stroke="none" d="
M 38.25 12.75
L 38.25 2.75 5 12.75 38.25 12.75 Z"/>

<path fill="#807E8A" stroke="none" d="
M 41.75 15.5
L 41.75 9.95 41.75 5.6 41.75 0 38.25 0 38.25 2.75 38.25 12.75 38.25 15.5 41.75 15.5 Z"/>

<path fill="#706E79" stroke="none" d="
M 41.75 9.95
L 52 9.95 52 5.6 41.75 5.6 41.75 9.95 Z"/>
</g>

<g id="Symbol_2_0_Layer0_1_FILL">
<path fill="#DEC8AF" stroke="none" d="
M 55.95 7.8
L 49.5 1.35 43.05 7.8 49.5 14.25 55.95 7.8 Z"/>
</g>

<g id="Symbol_2_0_Layer0_2_FILL">
<path fill="#DEC8AF" stroke="none" d="
M 27.65 57.6
L 34.1 51.15 27.7 44.75 21.25 51.2 27.65 57.6 Z"/>
</g>
</defs>

<g transform="matrix( 1, 0, 0, 1, 18,29.5) ">
<g transform="matrix( 1, 0, 0, 1, 0,0) ">
<use xlink:href="#Symbol_2_0_Layer0_0_FILL"/>
</g>

<g transform="matrix( 1, 0, 0, 1, 0,0) ">
<use xlink:href="#Symbol_2_0_Layer0_1_FILL"/>
</g>

<g transform="matrix( 1, 0, 0, 1, 0,0) ">
<use xlink:href="#Symbol_2_0_Layer0_2_FILL"/>
</g>
</g>
</svg>
