
<svg xmlns="http://www.w3.org/2000/svg" version="1.1" xmlns:xlink="http://www.w3.org/1999/xlink" preserveAspectRatio="none" x="0px" y="0px" width="960px" height="160px" viewBox="0 0 960 160">
<defs>
<linearGradient id="Gradient_1" gradientUnits="userSpaceOnUse" x1="346.7" y1="107.2" x2="370.2" y2="83.7" spreadMethod="pad">
<stop  offset="0%" stop-color="#D4CDCD"/>

<stop  offset="100%" stop-color="#BFB7B7"/>
</linearGradient>

<linearGradient id="Gradient_2" gradientUnits="userSpaceOnUse" x1="551.0999999999999" y1="127.1" x2="542.5" y2="95" spreadMethod="pad">
<stop  offset="0%" stop-color="#D4CDCD"/>

<stop  offset="100%" stop-color="#BFB7B7"/>
</linearGradient>

<linearGradient id="Gradient_3" gradientUnits="userSpaceOnUse" x1="44.025" y1="56.25" x2="77.275" y2="56.25" spreadMethod="pad">
<stop  offset="0%" stop-color="#D4CDCD"/>

<stop  offset="100%" stop-color="#BFB7B7"/>
</linearGradient>

<linearGradient id="Gradient_4" gradientUnits="userSpaceOnUse" x1="258.1375" y1="17.212500000000002" x2="262.3625" y2="50.1875" spreadMethod="pad">
<stop  offset="0%" stop-color="#D4CDCD"/>

<stop  offset="100%" stop-color="#BFB7B7"/>
</linearGradient>

<linearGradient id="Gradient_5" gradientUnits="userSpaceOnUse" x1="711.0999999999999" y1="127.1" x2="702.5" y2="95" spreadMethod="pad">
<stop  offset="0%" stop-color="#D4CDCD"/>

<stop  offset="100%" stop-color="#BFB7B7"/>
</linearGradient>

<linearGradient id="Gradient_6" gradientUnits="userSpaceOnUse" x1="853.6125" y1="106.5875" x2="862.1875" y2="74.51249999999999" spreadMethod="pad">
<stop  offset="0%" stop-color="#D4CDCD"/>

<stop  offset="100%" stop-color="#BFB7B7"/>
</linearGradient>

<g id="Layer2_0_FILL">
<path fill="#D9BFA1" stroke="none" d="
M 66.7 106.1
L 73.15 99.65 66.75 93.25 60.3 99.7 66.7 106.1 Z"/>
</g>

<g id="Layer2_1_FILL">
<path fill="#D9BFA1" stroke="none" d="
M 225.9 92.5
L 218 97.05 222.55 104.9 230.4 100.35 225.9 92.5 Z"/>
</g>

<g id="Layer2_2_FILL">
<path fill="#D9BFA1" stroke="none" d="
M 412.9 110.4
L 417.45 102.45 409.65 97.95 405.05 105.85 412.9 110.4 Z"/>
</g>

<g id="Layer2_3_MEMBER_0_FILL">
<path fill="#D4CDCD" stroke="none" d="
M 343.2 103.7
L 343.15 110.7 350.25 110.75 366.7 80.2 343.2 103.7 Z"/>

<path fill="url(#Gradient_1)" stroke="none" d="
M 373.75 87.25
L 366.7 80.2 350.25 110.75 373.75 87.25 Z"/>

<path fill="#515969" stroke="none" d="
M 371.2 79.7
L 374.25 82.75 381.5 75.5 378.45 72.45 371.2 79.7 Z"/>

<path fill="#646E80" stroke="none" d="
M 364.75 78.25
L 366.7 80.2 373.75 87.25 375.7 89.2 378.2 86.7 374.25 82.75 371.2 79.7 367.25 75.75 364.75 78.25 Z"/>
</g>

<g id="Layer2_3_MEMBER_1_FILL">
<path fill="#D9BFA1" stroke="none" d="
M 382.75 71.2
L 373.65 71.25 373.65 80.35 382.75 80.35 382.75 71.2 Z"/>
</g>

<g id="Layer2_4_MEMBER_0_FILL">
<path fill="#D4CDCD" stroke="none" d="
M 546.3 128.4
L 552.4 131.9 555.95 125.8 537.7 96.3 546.3 128.4 Z"/>

<path fill="url(#Gradient_2)" stroke="none" d="
M 547.35 93.7
L 537.7 96.3 555.95 125.8 547.35 93.7 Z"/>

<path fill="#515969" stroke="none" d="
M 543.75 91.05
L 541.1 81.15 536.9 82.25 539.55 92.15 543.75 91.05 Z"/>

<path fill="#646E80" stroke="none" d="
M 535.05 97
L 537.7 96.3 547.35 93.7 550 93 549.1 89.6 543.75 91.05 539.55 92.15 534.15 93.6 535.05 97 Z"/>
</g>

<g id="Layer2_4_MEMBER_1_FILL">
<path fill="#D9BFA1" stroke="none" d="
M 537.95 77.9
L 533.45 85.8 541.3 90.35 545.9 82.45 537.95 77.9 Z"/>
</g>

<g id="Layer2_5_MEMBER_0_FILL">
<path fill="#D4CDCD" stroke="none" d="
M 77.3 51.25
L 44.05 51.25 39.05 56.25 44.05 61.25 77.3 51.25 Z"/>

<path fill="url(#Gradient_3)" stroke="none" d="
M 77.3 61.25
L 77.3 51.25 44.05 61.25 77.3 61.25 Z"/>

<path fill="#646E80" stroke="none" d="
M 80.8 48.5
L 77.3 48.5 77.3 51.25 77.3 61.25 77.3 64 80.8 64 80.8 58.45 80.8 54.1 80.8 48.5 Z"/>

<path fill="#515969" stroke="none" d="
M 91.05 58.45
L 91.05 54.1 80.8 54.1 80.8 58.45 91.05 58.45 Z"/>
</g>

<g id="Layer2_5_MEMBER_1_FILL">
<path fill="#D9BFA1" stroke="none" d="
M 95 56.3
L 88.55 49.85 82.1 56.3 88.55 62.75 95 56.3 Z"/>
</g>

<g id="Layer2_6_MEMBER_0_FILL">
<path fill="url(#Gradient_4)" stroke="none" d="
M 257.4 50.8
L 267.3 49.55 253.2 17.85 257.4 50.8 Z"/>

<path fill="#646E80" stroke="none" d="
M 264.95 53.4
L 270.5 52.7 270.05 49.2 267.3 49.55 257.4 50.8 254.65 51.15 255.1 54.65 260.6 53.95 264.95 53.4 Z"/>

<path fill="#515969" stroke="none" d="
M 266.25 63.55
L 264.95 53.4 260.6 53.95 261.9 64.1 266.25 63.55 Z"/>

<path fill="#D4CDCD" stroke="none" d="
M 263.1 16.6
L 257.5 12.3 253.2 17.85 267.3 49.55 263.1 16.6 Z"/>
</g>

<g id="Layer2_6_MEMBER_1_FILL">
<path fill="#D9BFA1" stroke="none" d="
M 269.5 67.75
L 268.35 58.7 259.3 59.9 260.45 68.9 269.5 67.75 Z"/>
</g>

<g id="Layer2_7_FILL">
<path fill="#D9BFA1" stroke="none" d="
M 580.45 110.4
L 585 102.45 577.2 97.95 572.6 105.85 580.45 110.4 Z"/>
</g>

<g id="Layer2_8_FILL">
<path fill="#D9BFA1" stroke="none" d="
M 740.45 110.4
L 745 102.45 737.2 97.95 732.6 105.85 740.45 110.4 Z"/>
</g>

<g id="Layer2_9_MEMBER_0_FILL">
<path fill="#D4CDCD" stroke="none" d="
M 706.3 128.4
L 712.4 131.9 715.95 125.8 697.7 96.3 706.3 128.4 Z"/>

<path fill="url(#Gradient_5)" stroke="none" d="
M 707.35 93.7
L 697.7 96.3 715.95 125.8 707.35 93.7 Z"/>

<path fill="#515969" stroke="none" d="
M 699.55 92.15
L 703.75 91.05 701.1 81.15 696.9 82.25 699.55 92.15 Z"/>

<path fill="#646E80" stroke="none" d="
M 694.15 93.6
L 695.05 97 697.7 96.3 707.35 93.7 710 93 709.1 89.6 703.75 91.05 699.55 92.15 694.15 93.6 Z"/>
</g>

<g id="Layer2_9_MEMBER_1_FILL">
<path fill="#D9BFA1" stroke="none" d="
M 697.95 77.9
L 693.45 85.8 701.3 90.35 705.9 82.45 697.95 77.9 Z"/>
</g>

<g id="Layer2_10_FILL">
<path fill="#D9BFA1" stroke="none" d="
M 881.6 109.85
L 889.55 105.25 885.05 97.5 877.1 102 881.6 109.85 Z"/>
</g>

<g id="Layer2_11_MEMBER_0_FILL">
<path fill="#D4CDCD" stroke="none" d="
M 852.35 111.4
L 858.45 107.95 857.35 73.25 848.8 105.35 852.35 111.4 Z"/>

<path fill="url(#Gradient_6)" stroke="none" d="
M 867 75.85
L 857.35 73.25 858.45 107.95 867 75.85 Z"/>

<path fill="#646E80" stroke="none" d="
M 855.65 69.15
L 854.7 72.55 857.35 73.25 867 75.85 869.65 76.55 870.6 73.15 865.25 71.75 861.05 70.6 855.65 69.15 Z"/>

<path fill="#515969" stroke="none" d="
M 867.9 61.85
L 863.7 60.7 861.05 70.6 865.25 71.75 867.9 61.85 Z"/>
</g>

<g id="Layer2_11_MEMBER_1_FILL">
<path fill="#D9BFA1" stroke="none" d="
M 866.8 57.5
L 858.95 62.05 863.5 69.9 871.4 65.35 866.8 57.5 Z"/>
</g>

<g id="Layer1_0_FILL">
<path fill="#FFFFFF" fill-opacity="0.6" stroke="none" d="
M 439.35 26.95
L 439.35 24.25
Q 442.75 24.15 447 23.95 444.35 21.35 444.35 17.5 445.7 17.75 452.55 19.65 430.35 0 400 0 399.1 0 398.2 0.05 366.15 0.65 343.4 23.4 320 46.85 320 80 320 113.2 343.4 136.6 349.098828125 142.298828125 354.5 145.8 355.46484375 146.43984375 356.4 147 368.958984375 155.2375 371.35 151.05
L 389.8 92.2
Q 364.75 48.95 432.3 27.3 436.05 27.05 438.4 26.95 438.85 26.95 439.35 26.95 Z"/>
</g>

<g id="Layer1_1_FILL">
<path fill="#FFFFFF" fill-opacity="0.4" stroke="none" d="
M 552.35 1.25
Q 552.55 0.8 552.8 0.3 524.2 2.6 503.4 23.4 480 46.85 480 80 480 113.2 503.4 136.6 526.45 159.65 559 160 559.5 160 560 160 561.6408203125 159.9962890625 562.7 160 563.7599609375 160.051171875 564.95 159.6 566.133984375 159.19765625 566.55 157.4 567.0220703125 155.6109375 566.15 151.5 565.278125 147.432421875 552.45 97.55 535.152734375 94.4552734375 537 64.65 538.8974609375 34.89375 557.85 14.35
L 556.35 14.25 556.35 9
Q 556.5 8.55 557.3 7.25
L 552.35 7.25 552.35 1.25 Z"/>
</g>

<g id="Layer1_2_FILL">
<path fill="#FFFFFF" fill-opacity="0.2" stroke="none" d="
M 653.6 65.25
Q 652.8322265625 63.6291015625 652.3 61.45
L 647.6 61.25
Q 647.6 60.076171875 647.55 58.7 645.5525390625 62.790625 645.35 66.25 647.1 66.5 644.6 66.5
L 641.05 66.35
Q 640 72.9673828125 640 80 640 113.2 663.4 136.6 686.8 160 720 160 722.330859375 159.996875 725.2 159.8 728.06640625 159.6548828125 729.55 158.3 731.0439453125 156.946875 729.85 152.35
L 715 104.8
Q 694.7626953125 114.0796875 658.6 64
L 658.6 65.25 653.6 65.25 Z"/>
</g>

<g id="Layer1_3_FILL">
<path fill="#FFFFFF" fill-opacity="0.050980392156862744" stroke="none" d="
M 844.6 114.85
L 844.6 117.25
Q 844.1623046875 117.48515625 843.65 117.7
L 844.75 117.75 844.75 122.25 832.6 122.25
Q 831.9689453125 122.4728515625 831.3 122.7
L 838.6 127.25 829.6 127.25 829.6 131.5 818.6 131.4
Q 820.8703125 134.0703125 823.4 136.6 846.8 160 880 160 881.155859375 160 882.3 159.95 884.5990234375 159.917578125 886.85 159.75 894.577734375 159.0048828125 873.85 103.75 870.62265625 122.2037109375 844.6 114.85 Z"/>
</g>

<g id="Layer1_4_FILL">
<path fill="#FFFFFF" fill-opacity="0.2" stroke="none" d="
M 298.1 25
Q 297.34140625 24.19140625 296.55 23.4 275.7341796875 2.5841796875 247.2 0.25 246.8173828125 0.244921875 246.4 0.2 231.69609375 -2.930078125 242.75 65.45 251.8935546875 60.8974609375 253 60.55 258.1470703125 56.91484375 263.25 54.35 262.9 50.4689453125 262.9 50.2 263.412109375 45.311328125 275.5 44.8
L 275.5 40.5
Q 276.457421875 40.5 277.35 40.5 277.8748046875 38.3185546875 278.2 37.25 279.0466796875 34.644921875 281.5 32.75 281.4181640625 32.632421875 281.35 32.5 281.5107421875 32.559765625 281.65 32.6 282.9130859375 31.6955078125 284.55 30.95 286.2966796875 30.148828125 288.7 29.4 288.401953125 27.7494140625 288.35 26.5 289.5041015625 26.9990234375 290.55 27.55 290.35 26.955859375 290.35 26.5 294.997265625 26.598828125 299.65 26.9 299.7546875 26.91640625 299.85 26.9 298.9994140625 25.943359375 298.1 25 Z"/>
</g>
</defs>

<g transform="matrix( 1, 0, 0, 1, 0,0) ">
<use xlink:href="#Layer2_0_FILL"/>
</g>

<g transform="matrix( 1, 0, 0, 1, 0,0) ">
<use xlink:href="#Layer2_1_FILL"/>
</g>

<g transform="matrix( 1, 0, 0, 1, 0,0) ">
<use xlink:href="#Layer2_2_FILL"/>
</g>

<g transform="matrix( 1, 0, 0, 1, 0,0) ">
<use xlink:href="#Layer2_3_MEMBER_0_FILL"/>
</g>

<g transform="matrix( 1, 0, 0, 1, 0,0) ">
<use xlink:href="#Layer2_3_MEMBER_1_FILL"/>
</g>

<g transform="matrix( 1, 0, 0, 1, 0,0) ">
<use xlink:href="#Layer2_4_MEMBER_0_FILL"/>
</g>

<g transform="matrix( 1, 0, 0, 1, 0,0) ">
<use xlink:href="#Layer2_4_MEMBER_1_FILL"/>
</g>

<g transform="matrix( 1, 0, 0, 1, 0,0) ">
<use xlink:href="#Layer2_5_MEMBER_0_FILL"/>
</g>

<g transform="matrix( 1, 0, 0, 1, 0,0) ">
<use xlink:href="#Layer2_5_MEMBER_1_FILL"/>
</g>

<g transform="matrix( 1, 0, 0, 1, 0,0) ">
<use xlink:href="#Layer2_6_MEMBER_0_FILL"/>
</g>

<g transform="matrix( 1, 0, 0, 1, 0,0) ">
<use xlink:href="#Layer2_6_MEMBER_1_FILL"/>
</g>

<g transform="matrix( 1, 0, 0, 1, 0,0) ">
<use xlink:href="#Layer2_7_FILL"/>
</g>

<g transform="matrix( 1, 0, 0, 1, 0,0) ">
<use xlink:href="#Layer2_8_FILL"/>
</g>

<g transform="matrix( 1, 0, 0, 1, 0,0) ">
<use xlink:href="#Layer2_9_MEMBER_0_FILL"/>
</g>

<g transform="matrix( 1, 0, 0, 1, 0,0) ">
<use xlink:href="#Layer2_9_MEMBER_1_FILL"/>
</g>

<g transform="matrix( 1, 0, 0, 1, 0,0) ">
<use xlink:href="#Layer2_10_FILL"/>
</g>

<g transform="matrix( 1, 0, 0, 1, 0,0) ">
<use xlink:href="#Layer2_11_MEMBER_0_FILL"/>
</g>

<g transform="matrix( 1, 0, 0, 1, 0,0) ">
<use xlink:href="#Layer2_11_MEMBER_1_FILL"/>
</g>

<g transform="matrix( 1, 0, 0, 1, 0,0) ">
<use xlink:href="#Layer1_0_FILL"/>
</g>

<g transform="matrix( 1, 0, 0, 1, 0,0) ">
<use xlink:href="#Layer1_1_FILL"/>
</g>

<g transform="matrix( 1, 0, 0, 1, 0,0) ">
<use xlink:href="#Layer1_2_FILL"/>
</g>

<g transform="matrix( 1, 0, 0, 1, 0,0) ">
<use xlink:href="#Layer1_3_FILL"/>
</g>

<g transform="matrix( 1, 0, 0, 1, 0,0) ">
<use xlink:href="#Layer1_4_FILL"/>
</g>
</svg>
